<svg width="44" height="45" viewBox="0 0 44 45" fill="none" xmlns="http://www.w3.org/2000/svg">
<path d="M21.8369 44.1674C33.7816 44.1674 43.4648 34.4842 43.4648 22.5395C43.4648 10.5947 33.7816 0.91156 21.8369 0.91156C9.89213 0.91156 0.208984 10.5947 0.208984 22.5395C0.208984 34.4842 9.89213 44.1674 21.8369 44.1674Z" fill="#F0F0F0"/>
<path d="M20.2285 14.2979C20.3727 14.4421 20.6611 14.4421 20.8053 14.7305C21.382 15.3072 21.382 16.0282 20.8053 16.6049C18.9309 18.4793 16.9123 20.4979 15.0378 22.3724C14.8937 22.5165 14.7495 22.5165 14.6053 22.6607C14.8937 22.9491 15.182 23.0933 15.3262 23.3817C17.0564 25.1119 18.7867 26.8421 20.5169 28.5724C21.5262 29.4375 21.382 30.591 20.0843 31.0235C19.9402 31.0235 19.796 31.0235 19.6518 31.0235C19.3634 30.7351 18.9309 30.591 18.6425 30.3026C16.4797 28.1398 14.3169 25.977 12.0099 23.67C11.289 22.9491 11.289 22.2282 12.0099 21.5072C14.3169 19.2003 16.4797 17.0375 18.7867 14.7305C19.075 14.4421 19.3634 14.2979 19.6518 14.1537C19.796 14.2979 20.0843 14.2979 20.2285 14.2979Z" fill="black"/>
<path d="M30.61 24.1027H14.0286C13.3077 24.1027 12.731 23.5259 12.731 22.805C12.731 22.0841 13.3077 21.5073 14.0286 21.5073H30.61C31.3309 21.5073 31.9076 22.0841 31.9076 22.805C31.9076 23.5259 31.3309 24.1027 30.61 24.1027Z" fill="black"/>
</svg>
