<svg width="40" height="35" viewBox="0 0 40 35" fill="none" xmlns="http://www.w3.org/2000/svg">
<path d="M7 24.7917L15.625 24.7917C16.9056 24.7917 17.5459 24.7917 18.0567 24.9839C18.8653 25.2883 19.5034 25.9264 19.8077 26.7349C20 27.2458 20 27.8861 20 29.1667L20 11.8333C20 9.0049 20 7.59069 19.1213 6.71201C18.2426 5.83333 16.8284 5.83333 14 5.83333L7 5.83333C6.05719 5.83333 5.58579 5.83333 5.29289 6.12622C5 6.41911 5 6.89052 5 7.83333L5 22.7917C5 23.7345 5 24.2059 5.29289 24.4988C5.58579 24.7917 6.05719 24.7917 7 24.7917Z" stroke="black" stroke-width="2.11063"/>
<path d="M33 24.7917L24.375 24.7917C23.0944 24.7917 22.4541 24.7917 21.9433 24.9839C21.1347 25.2883 20.4966 25.9264 20.1923 26.7349C20 27.2458 20 27.8861 20 29.1667L20 11.8333C20 9.0049 20 7.59069 20.8787 6.71201C21.7574 5.83333 23.1716 5.83333 26 5.83333L33 5.83333C33.9428 5.83333 34.4142 5.83333 34.7071 6.12622C35 6.41911 35 6.89052 35 7.83333L35 22.7917C35 23.7345 35 24.2059 34.7071 24.4988C34.4142 24.7917 33.9428 24.7917 33 24.7917Z" stroke="black" stroke-width="2.11063"/>
</svg>
