<svg width="124" height="124" viewBox="0 0 124 124" fill="none" xmlns="http://www.w3.org/2000/svg">
<path d="M53.3483 92.8938C53.3483 92.8938 53.3483 92.7907 53.2451 92.7907H52.0069C51.8005 92.7907 51.9037 92.8938 51.9037 92.8938C52.3165 94.5434 52.1101 96.7085 52.0069 97.3271C52.0069 97.3271 51.9037 97.5333 52.1101 97.5333H53.3483C53.5547 97.5333 53.4515 97.4302 53.4515 97.4302C52.9356 95.0589 53.2452 93.4093 53.3483 92.8938Z" fill="#8B0029"/>
<path d="M56.6504 92.5843C54.6899 92.7905 54.7931 95.0587 54.7931 95.0587C54.8963 97.1207 57.0632 97.5332 57.0632 97.5332C56.4441 99.0797 54.8963 99.5952 54.8963 99.5952C54.4835 99.6983 54.7931 99.8014 54.7931 99.8014C55.309 99.9045 55.9281 99.6983 55.9281 99.6983C58.8174 98.4611 58.8174 95.368 58.8174 95.368C59.0237 92.3781 56.6504 92.5843 56.6504 92.5843ZM57.3727 96.8115C56.4441 96.8115 56.2377 95.368 56.2377 95.368C56.0313 93.8215 56.6504 93.7184 56.6504 93.7184C57.2696 93.5122 57.5791 94.8525 57.5791 94.8525C57.8887 96.399 57.3727 96.8115 57.3727 96.8115Z" fill="#8B0029"/>
<path d="M61.8092 92.5844C61.8092 92.5844 60.0551 92.5844 59.9519 94.9557C59.9519 94.9557 59.8487 97.5332 62.1188 97.4301C62.1188 97.4301 64.2857 97.327 63.873 94.4402C63.873 94.4402 63.6666 92.4813 61.8092 92.5844ZM62.222 96.6053C61.3965 96.9146 61.2933 95.1619 61.2933 95.1619C61.1901 93.5123 61.9124 93.4092 61.9124 93.4092C62.6347 93.203 62.7379 94.4402 62.7379 94.4402C63.0475 96.296 62.222 96.6053 62.222 96.6053Z" fill="#8B0029"/>
<path d="M68.4138 92.4813C67.7947 92.7906 65.4214 92.6875 65.4214 92.6875L65.0087 95.162C65.0087 95.162 67.382 95.2651 66.7628 97.1209C66.7628 97.1209 66.2469 98.4612 64.3896 98.0488C64.1832 98.0488 64.1832 98.1519 64.1832 98.1519C64.08 98.255 64.2864 98.3581 64.2864 98.3581C65.3182 98.7705 66.2469 98.5643 66.2469 98.5643C68.2074 98.1519 68.3106 96.5023 68.3106 96.5023C68.3106 94.3371 66.3501 94.3372 66.3501 94.3372L66.4533 93.6155L67.5883 93.5123C68.3106 93.4092 68.517 92.6875 68.517 92.6875C68.517 92.3782 68.4138 92.4813 68.4138 92.4813Z" fill="#8B0029"/>
<path d="M57.2698 56.8084C57.373 56.9115 57.373 57.2208 57.5794 57.2208C57.7857 57.2208 57.9921 57.1177 58.0953 56.8084C58.6112 55.9836 58.8176 54.5402 58.6112 53.4061C58.6112 53.303 58.3017 52.9937 58.1985 52.8906C58.0953 52.7875 58.0953 52.4782 57.9921 52.3751C57.7857 52.3751 57.6826 52.1689 57.4762 52.3751L57.1666 52.6844C56.8571 53.0968 57.373 54.1278 57.2698 54.7464C57.1666 55.365 56.9603 56.396 57.2698 56.8084Z" fill="#8B0029"/>
<path d="M50.0464 52.9937C49.9432 52.9937 49.9432 52.9937 50.0464 52.9937C50.0464 52.8906 50.0464 52.8906 50.0464 52.9937C50.1496 52.9937 50.4591 52.8906 50.5623 52.7875C50.7687 52.5813 50.4591 52.272 50.4591 52.272C49.6336 51.9627 48.8082 52.4782 47.5699 52.3751C46.9508 52.3751 46.1253 51.9627 45.2998 52.1689C44.3711 52.3751 43.1329 52.7875 42.5138 53.303C42.5138 53.303 42.2042 53.8185 42.617 53.7154C42.9265 53.6123 43.2361 53.8185 43.4425 53.7154L43.752 53.6123C44.1648 53.303 44.5775 53.4061 44.9903 53.5092C45.1966 53.5092 45.8157 53.8185 46.0221 53.8185C46.3317 53.8185 47.8795 54.0247 49.6336 54.2309C49.6336 54.2309 50.5623 54.1279 50.2528 53.8185C50.3559 54.0248 50.2528 53.7154 49.84 53.6123L49.7368 53.5092C49.84 53.4061 49.5305 53.0968 50.0464 52.9937Z" fill="#8B0029"/>
<path d="M50.0456 52.9933C50.0456 52.891 50.0456 52.891 50.0456 52.9933C49.9431 52.9933 49.9431 52.9933 50.0456 52.9933Z" fill="#8B0029"/>
<path d="M53.4519 47.9419C53.4519 48.045 53.3487 47.2202 52.6264 47.2202C52.5232 47.2202 52.1104 47.3233 52.0073 47.4264C50.769 47.9419 50.769 48.8698 50.0467 49.7977C49.9435 49.9008 49.7371 50.0039 49.634 50.0039C49.4276 50.3132 49.4276 50.8287 49.118 51.0349C48.9117 51.138 48.2925 51.3442 48.1894 51.4473C47.983 51.6535 48.4989 51.7566 48.4989 51.7566C50.8722 51.6535 50.4595 50.3132 51.4913 48.9729C51.9041 48.5605 53.3487 48.5605 53.4519 47.9419Z" fill="#8B0029"/>
<path d="M62.4292 55.262C62.4292 55.1589 62.0165 54.4372 62.0165 54.3341C61.7069 53.6124 61.2942 52.9938 61.191 52.169C60.9846 50.7256 61.8101 50.107 62.0165 49.3853C62.2229 48.7667 62.1197 47.014 62.0165 46.2923C62.0165 46.0861 61.0878 43.921 60.9846 43.921C60.7783 43.7148 60.5719 43.6117 60.2623 43.7148L60.056 43.921C59.9528 44.0241 59.8496 44.2303 59.8496 44.4365C59.7464 44.952 59.4368 45.4675 59.2305 46.1892C59.1273 46.4985 58.8177 47.014 58.7145 47.3233C58.3018 48.4574 58.5082 50.107 58.8177 51.0349C59.0241 51.7566 60.056 52.7876 60.056 53.6124C60.056 54.7465 58.6113 55.5713 58.8177 57.1179C58.9209 57.5303 59.3337 57.9427 59.54 58.3551C60.056 60.1078 59.0241 62.376 59.6432 64.2318C59.6432 64.1287 59.7464 64.5411 60.3655 64.3349C60.4687 64.3349 60.4687 64.1287 60.7783 64.1287L60.9846 63.9225C61.0878 63.8194 61.2942 63.7163 61.2942 63.6132L61.6038 63.407C61.9133 62.9946 62.1197 62.6853 62.2229 62.0667C62.4292 60.6233 61.8101 59.1799 62.0165 57.7365C62.1197 57.0147 62.5324 56.0868 62.4292 55.262Z" fill="#8B0029"/>
<path d="M73.2632 42.3745C73.4696 43.0962 75.2238 44.4365 76.5652 44.2303C76.8747 44.2303 77.9066 43.7148 78.113 43.5086C78.3194 43.4055 78.4226 42.9931 78.5257 42.7869C78.9385 42.2714 79.4544 42.0652 79.9704 41.6528C80.0735 41.6528 80.2799 41.2404 80.3831 41.2404L80.5895 41.0342C81.1054 40.1063 80.5895 39.6939 79.5576 39.797C79.0417 39.9001 78.4226 40.3125 78.0098 40.5187C77.1843 40.828 76.5652 40.7249 75.5333 40.828C75.1206 40.828 73.9855 40.7249 73.4696 40.9311C73.2632 41.0342 73.0568 41.7559 73.2632 42.3745Z" fill="#8B0029"/>
<path d="M75.1207 39.4876C75.5334 39.3845 76.2558 39.0752 76.5653 38.9721C76.7717 38.869 77.0812 39.0752 77.2876 38.9721C77.9067 38.7659 79.0418 37.6317 77.7004 37.4255C77.1844 37.4255 75.7398 37.941 75.3271 38.0441C74.9143 38.1472 74.6048 38.2503 74.192 38.4565C74.0888 38.5596 73.5729 38.9721 73.6761 38.869C73.6761 38.869 73.3665 39.1783 73.8825 39.2814C73.9856 39.3845 74.6048 39.5907 75.1207 39.4876Z" fill="#8B0029"/>
<path d="M63.048 41.0343C63.9767 40.8281 63.9767 41.4467 64.3895 41.5498C65.215 41.6529 65.0086 40.9312 65.0086 40.9312C64.9054 40.5188 64.2863 39.694 63.9767 39.3847C63.6672 39.1785 63.3576 39.1785 63.1512 38.8692C62.9448 38.5599 62.9448 37.4257 62.6353 37.1164C62.5321 37.0133 62.0162 36.9102 62.0162 36.9102C60.9843 36.8071 57.8887 41.0343 59.6429 41.8591C60.0556 42.0653 60.3652 41.8591 60.7779 41.9622L61.2939 42.1684C62.2225 42.2715 62.4289 41.2405 63.048 41.0343Z" fill="#8B0029"/>
<path d="M56.6509 45.2613C56.9605 44.8489 56.8573 44.1272 57.0637 43.5086C57.0637 43.4055 57.27 43.0962 57.27 42.9931L57.3732 42.1683C57.27 41.6528 56.9605 41.859 56.9605 41.859C56.2382 42.2714 54.7936 42.7869 54.484 43.5086C54.2776 43.8179 54.2776 44.1272 54.1744 44.5396C54.1744 44.5396 53.9681 44.6427 53.8649 44.7458C53.1426 44.7458 52.5235 44.7458 51.9043 44.8489C51.3884 44.952 50.6661 45.4675 50.1502 45.5706C49.0151 45.7768 48.1896 45.2613 47.1578 45.4675C46.745 45.5706 46.4355 45.983 46.0227 46.1892C45.7132 46.2923 45.61 46.2923 45.3004 46.6016L45.094 46.9109C45.094 47.014 44.9908 47.2202 44.8877 47.4264C44.6813 47.7357 44.5781 48.1481 44.4749 48.4574C44.3717 48.7667 44.1654 49.6946 44.0622 50.0039C43.959 50.2101 43.5462 50.5194 43.443 50.7256C43.443 50.8287 43.3399 50.9318 43.443 51.138C43.2367 50.9318 43.3399 51.3442 44.1654 51.3442C45.1972 51.3442 47.2609 50.7256 47.2609 50.7256L48.2928 50.2101C48.4992 50.0039 49.3247 49.4884 49.4279 49.2822C50.1502 48.3543 52.2139 44.952 53.7617 45.8799L54.0713 46.0861C54.484 46.7047 53.9681 48.4574 53.6585 48.8698L53.349 49.2822C53.0394 49.3853 52.833 50.107 52.833 50.4163C52.7298 50.9318 52.9362 51.4473 52.9362 51.7566C53.0394 52.3752 53.0394 53.2 52.7298 54.0248C52.6266 54.231 52.4203 54.4372 52.5235 54.8496C52.6266 55.3651 53.2458 55.6744 53.349 56.0869C53.4521 56.2931 53.5553 56.2931 53.349 56.7055C53.2458 56.9117 52.6266 57.221 52.5235 57.4272C52.3171 57.6334 52.5235 58.0458 52.6266 58.1489C53.0394 58.5613 53.4521 58.5613 53.7617 59.0768C54.2776 59.6954 54.1744 60.2109 55.3095 60.314C56.135 60.4171 57.27 60.4171 56.7541 59.283L56.4445 58.7675C56.135 58.0458 55.6191 57.4272 55.6191 56.6024C55.5159 55.5713 56.3414 55.0558 56.0318 54.231C55.7222 53.6124 54.484 53.7155 54.3808 52.8907C54.3808 52.4783 54.7936 51.4473 54.8968 51.0349C54.9999 50.4163 54.7936 50.107 54.9999 49.5915C55.1031 49.1791 55.6191 48.7667 55.7222 48.3543C55.8254 47.5295 55.2063 47.014 55.5159 46.0861C55.6191 45.5706 56.3414 45.6737 56.6509 45.2613ZM49.0151 48.4574C48.2928 48.6636 48.2928 47.1171 46.5386 47.7357C46.4355 47.7357 46.0227 48.1481 45.9195 48.2512C45.7132 48.6636 45.8163 49.7977 45.61 49.9008C45.61 49.9008 44.9908 50.107 45.094 49.2822C45.3004 47.9419 45.5068 47.7357 46.2291 47.2202C46.3323 47.1171 46.5386 46.9109 46.6418 46.9109C47.4673 46.7047 48.9119 47.014 49.1183 47.4264C49.4279 47.7357 49.0151 48.4574 49.0151 48.4574Z" fill="#8B0029"/>
<path d="M20.9478 60.8295C20.8446 61.2419 26.004 62.376 28.8932 62.376C28.3772 62.5822 27.139 62.8915 26.3135 63.2008C24.9721 63.0977 23.1147 62.7884 22.8052 62.6853C22.9084 62.9946 24.1466 63.3039 25.2816 63.5101C24.2498 63.9225 22.702 64.1287 22.0829 64.2318C22.4956 64.3349 24.1466 64.0256 25.9008 63.6132C27.4486 63.9225 29.8219 64.2318 31.0601 64.1287C30.7505 64.3349 29.5123 65.0566 28.5836 65.6752C26.1071 65.8814 23.4243 66.0876 22.9084 66.1907C23.2179 66.1907 25.3848 66.2938 27.6549 66.1907C26.2103 67.0155 24.7657 67.8403 24.0434 68.1496C25.0753 67.8403 27.0358 67.1186 28.8932 66.0876C30.8537 65.9845 32.6079 65.8814 33.3302 65.5721C33.1238 66.0876 31.4728 68.7682 30.0282 69.3868C30.6473 69.2837 32.7111 68.6651 33.8461 65.6752C34.2589 65.8814 34.7748 65.9845 35.3939 65.9845C35.7035 66.5 36.4258 67.7372 37.8704 67.7372C38.18 68.562 40.8628 72.8922 44.5775 71.2426C43.5457 70.624 42.8234 70.0054 42.3074 68.3558C43.9584 68.2527 48.3954 70.624 49.6337 75.8822C48.6018 75.5729 47.2604 74.9543 47.1572 74.4387C46.8476 75.676 46.6413 77.2225 49.3241 79.9031C49.4273 80.5217 49.3241 81.1403 49.5305 81.862C49.9432 82.2744 50.4592 82.6868 50.9751 83.0992C50.9751 83.8209 50.8719 84.8519 52.9356 85.4705C53.6579 85.986 55.8249 86.6046 56.1344 87.017C56.7535 87.2232 57.7854 87.2232 58.4045 87.2232C58.4045 87.2232 59.3332 87.017 59.6428 86.7077C60.1587 86.7077 60.7778 86.7077 63.667 83.6147C64.2861 82.893 63.667 78.9752 63.7702 77.9442C64.0798 77.2225 64.183 76.6039 64.5957 75.7791C64.5957 75.7791 65.0085 74.9543 65.7308 74.645C65.8339 74.645 65.8339 74.645 65.9371 74.645C67.5881 74.2326 69.755 75.7791 70.7869 76.2946C71.1996 76.5008 71.3028 76.3977 71.6124 76.5008C71.7156 76.6039 71.922 76.9132 72.1283 77.0163C72.5411 77.2225 72.8506 77.1194 73.2634 77.4287C73.8825 77.738 75.0175 79.4907 76.1526 79.2845C76.4622 79.1814 76.7717 78.4597 76.9781 78.2535C77.494 77.9442 78.1131 77.9442 78.6291 77.6349C79.145 77.2225 78.9386 76.8101 79.0418 76.2946C79.0418 76.2946 79.2482 75.9853 79.2482 75.8822C79.4546 75.8822 80.0737 75.8822 80.3832 75.7791L80.5896 75.5729C80.796 75.3667 80.6928 75.1604 80.5896 74.9543C80.4864 74.7481 79.9705 74.5419 79.8673 74.3356C79.4546 73.9232 78.8354 73.4077 78.6291 72.9953C78.5259 72.7891 78.6291 72.686 78.5259 72.4798C78.3195 72.1705 77.9068 71.9643 77.8036 71.655C77.2877 70.624 77.494 68.2527 77.2877 67.8403C77.0813 67.531 76.8749 67.531 76.6685 67.2217C76.2558 66.6031 76.7717 64.438 76.7717 63.6132C76.7717 62.8915 76.1526 63.407 76.1526 63.407C75.6367 64.7473 75.6367 65.3659 75.5335 67.2217C75.5335 67.4279 75.3271 68.4589 75.3271 68.562C75.3271 69.2837 75.7398 70.4178 75.4303 71.1395C75.3271 71.4488 74.8112 71.8612 74.0889 71.8612C73.7793 71.8612 72.4379 71.4488 72.1283 71.3457C72.0251 71.3457 71.8188 70.9333 71.7156 70.9333C70.9933 70.4178 70.8901 70.9333 70.8901 71.1395C70.8901 71.4488 70.9933 71.4488 70.9933 71.655C70.9933 71.8612 71.3028 72.3767 71.3028 72.4798C71.3028 72.5829 71.0965 73.2015 69.755 72.3767C68.8264 71.7581 67.7945 70.2116 67.7945 69.9023C67.6913 69.2837 67.8977 68.7682 68.0009 68.562C68.5168 68.1496 69.0327 68.7682 69.5487 68.9744C69.6518 69.0775 69.9614 69.2837 70.1678 69.2837C70.4773 69.2837 70.8901 69.1806 70.9933 69.1806C72.8506 69.0775 74.8112 69.7992 75.1207 68.4589C75.3271 67.6341 74.5016 67.2217 74.3984 66.9124C74.1921 66.5 74.2952 66.5 74.1921 66.0876C74.1921 66.0876 74.0889 65.7783 73.9857 65.7783C73.7793 65.469 73.8825 65.1597 73.7793 64.7473C73.5729 64.3349 73.057 64.1287 72.7474 63.7163C72.4379 63.3039 72.4379 62.6853 72.0251 62.376C71.406 61.8605 68.8264 61.1388 68.5168 60.5202C68.0009 59.5923 68.62 57.8396 68.4136 56.7054C68.3104 55.9837 68.104 55.6744 67.5881 55.262C67.3817 55.0558 67.3817 54.8496 67.3817 54.6434C67.4849 54.231 67.6913 54.3341 67.7945 53.4062C67.8977 52.8907 67.7945 52.2721 67.7945 51.7566C67.7945 51.6535 68.0009 50.8287 68.104 50.7256C68.2072 49.3853 68.0009 47.8388 67.6913 46.9109C67.5881 46.3954 67.0722 45.983 66.969 45.5706C66.8658 45.1582 66.969 44.952 66.8658 44.5396C66.7626 44.2303 66.3499 43.921 66.1435 43.7148C65.8339 43.1993 65.9371 42.3745 65.4212 42.0652C65.0085 41.859 64.9053 42.1683 64.9053 42.0652C64.8021 42.4776 64.8021 42.9931 65.0085 43.5086C65.1116 43.7148 65.5244 44.1272 65.6276 44.3334C65.7308 44.7458 65.5244 45.3644 65.6276 45.7768L65.8339 46.2923C66.0403 47.5295 65.318 49.1791 64.8021 49.9008C64.4925 50.3132 63.3575 50.9318 63.3575 51.6535C63.2543 52.0659 63.4607 52.0659 63.5638 52.2721C63.7702 52.4783 64.2861 52.7876 64.2861 52.9938C64.3893 53.2 64.3893 53.0969 64.4925 53.3031L64.5957 53.6124C64.6989 54.4372 63.5638 54.6434 64.0798 55.6744C64.2861 55.9837 64.8021 55.9837 65.1116 56.1899C65.6276 56.4992 66.7626 57.5303 66.8658 58.4582C66.8658 58.8706 66.8658 60.8295 66.7626 61.0357C66.4531 61.5512 65.1116 61.7574 65.2148 62.8915C65.4212 64.1287 68.5168 63.7163 69.4455 64.3349C69.8582 64.6442 69.9614 65.2628 70.0646 65.8814C70.1678 66.1907 69.8582 66.2938 69.6518 66.3969C69.3423 66.6031 69.0327 66.3969 68.62 66.5C67.5881 66.7062 65.9371 67.1186 65.5244 67.9434C65.0085 68.8713 65.6276 70.2116 65.4212 71.2426C65.2148 72.2736 64.4925 73.4077 63.8734 74.2325C63.5638 74.7481 63.1511 75.1605 62.9447 75.8822C62.532 77.3256 62.8415 79.0783 62.7383 80.831C62.7383 80.831 62.8415 81.7589 62.2224 82.3775C61.5001 83.0992 59.1268 85.3674 57.4758 85.3674C56.8567 85.3674 56.5472 85.1612 55.928 84.6457C55.5153 84.6457 54.4834 84.3364 53.9675 83.8209C53.7611 83.5116 51.9038 81.6558 53.142 81.0372C54.2771 80.5217 56.0312 81.6558 56.8567 82.1713C57.1663 82.1713 59.5396 82.2744 62.1192 78.9752C62.016 77.2225 61.8097 74.9543 61.7065 74.5419C61.3969 73.717 59.9523 72.1705 59.6428 71.2426C59.4364 70.5209 59.1268 69.0775 59.3332 68.0465C59.23 66.9124 58.5077 66.7062 58.1981 65.7783C58.095 65.5721 57.9918 65.3659 57.9918 65.2628C57.8886 64.9535 57.8886 64.6442 57.6822 64.3349C57.2695 63.6132 56.8567 63.5101 56.444 62.8915C56.0312 62.1698 56.1344 61.345 55.4121 60.9326C55.1026 60.7264 54.5866 60.6233 54.1739 60.4171C53.8643 60.2109 53.5548 59.7985 53.142 59.6954C52.7293 59.4892 52.6261 59.4892 52.2133 59.283C52.007 59.1799 51.6974 59.0768 51.491 58.9737C51.2847 58.8706 51.1815 58.9737 50.9751 58.8706C50.5623 58.7675 50.8719 58.4582 50.6655 57.7365C50.6655 57.6334 50.4592 57.6334 50.4592 57.5303C50.2528 57.4272 49.9432 57.1178 49.6337 57.324C49.2209 57.6334 49.1177 57.5303 48.9114 58.0458C48.8082 58.4582 48.4986 59.4892 48.2922 59.7985C48.0859 60.1078 47.7763 60.4171 47.4667 60.7264C47.054 60.8295 46.7444 60.8295 46.7444 60.8295L45.8158 60.9326L45.403 61.6543C45.403 61.6543 44.8871 61.5512 44.6807 61.5512C44.5775 61.7574 43.9584 62.1698 43.752 62.376C42.9265 62.7884 42.5138 62.4791 42.4106 62.376C42.4106 62.2729 42.101 61.9636 42.617 61.5512C44.4743 61.0357 46.6413 58.5613 46.8476 58.0458C46.6413 58.3551 42.8234 60.5202 42.101 60.7264C42.8234 58.9737 47.4667 56.3961 47.7763 56.0868C46.6413 56.293 42.617 58.6644 41.9979 59.6954C41.3787 60.7264 40.5533 60.4171 39.8309 60.4171C39.1086 60.4171 39.2118 61.1388 39.1086 61.6543C39.1086 62.0667 38.7991 62.9946 39.0055 63.2008C39.5214 63.6132 40.7596 61.9636 41.1724 62.7884C41.3787 63.8194 38.7991 63.7163 38.7991 64.5411C38.6959 64.9535 41.1724 65.1597 41.6883 65.5721C40.8628 66.1907 38.9023 66.3969 38.2831 66.3969C37.8704 66.3969 37.5608 66.3969 37.3545 66.3969C37.0449 66.2938 36.6322 66.0876 36.2194 65.3659C35.4971 64.0256 36.7353 63.0977 36.7353 62.7884C36.7353 62.4791 36.6322 62.5822 36.529 62.0667C36.529 61.5512 37.1481 61.4481 37.2513 61.345C37.4577 61.2419 37.2513 61.0357 37.2513 60.5202C37.5608 59.283 39.5214 57.9427 39.0055 57.5303C38.5927 57.3241 37.5608 58.3551 37.2513 58.8706C35.9099 60.6233 34.3621 60.1078 33.7429 60.1078C32.5047 60.2109 32.7111 58.8706 33.6398 58.9737C34.5684 58.7675 34.5684 57.4272 35.1876 57.5303C35.3939 58.4582 34.3621 58.6644 34.878 58.8706C35.6003 59.1799 35.6003 58.252 35.8067 57.8396C36.013 57.4272 36.9417 56.6023 36.8385 56.3961C36.529 56.293 35.8067 56.8085 35.4971 57.0147C34.6716 55.0558 36.7354 53.5093 36.8385 52.9938C37.4577 51.9628 41.1724 50.6225 41.1724 49.076L41.2756 48.9729C41.2756 48.9729 41.3787 48.9729 41.4819 49.076C41.4819 49.1791 41.4819 49.2822 41.5851 49.3853C41.5851 49.4884 41.5851 49.5915 41.5851 49.5915V49.4884C41.5851 49.6946 41.5851 49.9008 41.5851 49.9008V50.107C41.5851 50.2101 41.7915 50.3132 41.7915 50.3132C41.8947 50.3132 42.1011 50.2101 42.2042 50.0039C42.2042 50.0039 42.4106 49.7977 42.4106 49.6946C42.7202 49.4884 42.8234 49.3853 43.0297 49.076C43.6488 48.1481 42.4106 46.8078 42.8234 45.5706C43.0297 44.7458 43.8552 43.8179 43.8552 43.8179C44.0616 43.3024 43.752 43.4055 43.752 43.4055C43.2361 43.3024 42.9265 43.8179 43.0297 43.7148C42.4106 44.3334 42.2042 44.5396 41.7915 45.3644C41.7915 45.3644 41.3787 45.6737 41.2756 45.2613C41.0692 44.5396 41.8947 42.9931 42.2042 42.7869C42.7202 42.4776 43.2361 42.2714 43.8552 42.0652C44.1648 41.9621 44.6807 41.4466 44.9903 41.3435C45.1966 41.2404 45.2998 41.2404 45.5062 41.3435C45.5062 41.3435 45.7126 41.5497 45.6094 42.0652C45.6094 42.0652 45.403 42.7869 45.403 42.9931C45.5062 43.1993 45.403 43.3024 45.8158 43.3024C46.7444 43.3024 48.705 43.0962 49.3241 42.7869C49.4273 42.6838 49.6337 42.5807 49.7369 42.3745C49.9432 42.1683 49.84 41.859 49.7369 41.859L49.3241 41.7559C49.6337 41.7559 47.6731 41.6528 47.9827 41.6528C47.6731 41.7559 48.4986 40.7249 48.3954 40.3125C48.3954 40.1062 47.9827 40.0031 47.8795 39.7969C47.8795 39.6938 47.6731 39.4876 47.8795 39.3845L48.1891 39.2814C48.2922 39.1783 48.3954 39.0752 48.4986 39.0752C49.1177 38.7659 50.2528 38.9721 50.7687 39.0752C50.8719 39.0752 51.5942 39.2814 51.9038 40.1063C52.007 40.3125 52.007 40.5187 52.1101 40.7249C52.5229 41.2404 53.5548 41.4466 54.1739 40.828C54.2771 40.7249 54.4834 40.4156 54.5866 40.2094C55.2057 38.7659 54.2771 37.7349 53.0388 37.3225C52.5229 37.1163 51.8006 37.1163 51.1815 36.9101C50.7687 36.807 50.9751 36.3946 51.1815 36.2915L51.3878 36.0853C51.5942 35.776 52.3165 35.4667 52.6261 35.3636C53.2452 35.1574 53.9675 34.8481 54.8962 35.2605C54.9994 35.2605 55.4121 35.5698 55.5153 35.6729C56.2376 35.8791 56.444 35.8791 57.1663 35.5698C57.4758 35.4667 57.3727 35.3636 57.3727 35.3636C57.579 34.745 57.1663 34.2295 57.1663 34.3326C57.0631 33.4047 59.5396 34.5388 59.9523 34.0233C60.3651 33.5078 60.0555 32.5799 60.5714 32.1675C60.6746 32.1675 60.881 31.9613 60.9842 31.9613C61.5001 31.8582 61.9129 32.0644 62.2224 32.1675L62.6352 32.3737C63.4607 32.683 64.183 32.8892 64.5957 33.5078C64.9053 33.9202 64.8021 34.5388 65.1116 35.0543C65.2148 35.2605 65.5244 35.3636 65.6276 35.5698C65.7308 35.6729 65.9371 35.776 66.1435 35.8791C66.3499 35.9822 66.4531 36.0853 66.7626 36.1884C66.969 36.2915 67.2786 36.6008 67.4849 36.7039C68.4136 37.1163 69.3423 37.1163 70.1678 37.1163C70.6837 37.1163 70.9933 37.4256 71.406 37.2194C71.6124 37.1163 71.6124 36.7039 71.406 36.4977C71.0965 36.0853 70.8901 36.1884 70.3741 35.8791C70.1678 35.776 69.9614 35.3636 69.755 35.2605C69.2391 34.8481 68.4136 34.8481 68.0009 34.2295C68.0009 34.1264 67.8977 33.9202 67.8977 33.8171L67.7945 33.5078C67.0722 32.0644 66.8658 31.2396 67.5881 31.0334C68.0009 30.8272 68.9295 30.9303 69.3423 30.8272C69.4455 30.7241 69.6518 30.5179 69.755 30.4148C70.7869 29.8993 72.6443 29.3838 73.5729 29.8993C73.8825 30.0024 73.5729 30.8272 73.6761 31.1365C73.7793 31.2396 73.9857 31.5489 74.1921 31.5489C76.359 32.1675 78.4227 32.0644 80.0737 32.7861C81.0024 33.1985 81.7247 33.9202 82.5502 34.6419C83.2725 35.2605 82.447 35.9822 83.1693 36.1884C82.6533 36.2915 82.2406 36.2915 82.1374 36.0853C82.1374 35.9822 81.931 35.776 81.931 35.6729C81.4151 35.1574 80.6928 34.3326 79.9705 34.0233C79.5578 33.9202 79.3514 34.0233 78.9386 33.9202L78.3195 34.0233C77.8036 33.9202 77.7004 33.9202 77.1845 33.8171C76.9781 33.8171 76.4622 33.5078 76.1526 33.5078C75.1207 33.3016 74.5016 33.8171 73.5729 33.5078C73.1602 33.4047 72.5411 32.683 72.2315 32.4768C71.8188 32.2706 71.406 32.1675 70.8901 31.9613C70.6837 31.8582 70.5805 31.8582 70.4773 31.9613C70.1678 32.1675 70.271 32.3737 70.4773 32.5799C70.5805 32.683 70.5805 32.8892 70.6837 32.8892C70.9933 33.0954 71.7156 33.0954 71.9219 33.5078C72.4379 34.6419 71.7156 34.9512 71.5092 35.2605C71.406 35.4667 71.3028 35.5698 71.5092 35.8791C71.6124 35.9822 71.922 36.1884 72.0251 36.2915C72.5411 36.4977 72.9538 36.3946 73.3666 36.7039C73.6761 36.9101 74.0889 37.5287 74.5016 37.5287C75.5335 37.7349 75.7399 37.0132 76.2558 36.9101C76.9781 36.7039 77.3908 37.1163 78.2163 36.9101C78.5259 36.807 78.6291 36.4977 78.8354 36.3946C79.3514 36.1884 79.7641 36.0853 80.0737 36.2915C80.0737 36.2915 80.3832 36.4977 79.9705 36.7039C79.7641 36.807 79.4546 36.807 79.2482 37.0132C79.0418 37.1163 78.9386 37.3225 78.8354 37.4256C78.7323 37.6318 78.7323 37.838 78.7323 37.838C78.8354 37.9411 78.9386 38.0442 78.9386 38.0442C79.7641 38.3535 80.6928 37.7349 81.4151 37.6318C81.931 37.5287 83.4788 37.6318 83.9948 37.9411C83.9948 37.9411 84.4075 38.0442 84.098 38.7659C83.8916 39.1783 83.2725 39.4876 82.9629 39.9001C82.7565 40.1063 82.6534 40.5187 82.447 40.7249C82.1374 41.0342 82.1374 41.0342 81.8279 41.3435L81.6215 41.6528C81.5183 41.9621 80.2801 43.0962 79.9705 43.4055C79.8673 43.6117 79.7641 43.8179 79.5578 44.0241C79.3514 44.3334 79.145 44.4365 79.0418 44.6427C78.6291 45.1582 78.01 46.1892 77.3908 46.4985C77.0813 46.6016 76.7717 46.4985 76.359 46.3954C76.1526 46.2923 75.843 45.8799 75.6367 45.7768C74.8112 45.3644 73.7793 45.4675 73.057 45.0551C72.6443 44.8489 72.3347 44.1272 72.0251 43.8179C71.8188 43.6117 71.7156 43.1993 71.406 43.0962C70.9933 42.9931 69.8582 43.0962 69.6518 43.5086C69.2391 44.3334 70.271 46.2923 70.3741 47.1171C70.4773 47.8388 70.0646 48.1481 70.3741 48.7667C70.4773 49.076 70.9933 49.1791 71.0965 49.3853C71.8188 50.4163 71.1996 51.9628 71.3028 53.4062C71.406 53.8186 71.6124 54.4372 71.5092 55.0558C71.406 56.0868 70.1678 56.9116 70.6837 58.3551C70.6837 58.4582 70.9933 58.5613 70.9933 58.5613C71.1996 58.6644 71.5092 58.6644 71.7156 58.5613C72.1283 58.4582 72.5411 57.6334 72.9538 57.324C72.9538 57.2209 73.1602 57.221 73.2634 57.221C73.2634 57.1178 73.4697 57.1179 73.4697 57.1179C73.6761 57.0148 73.6761 57.0147 73.8825 56.7054C74.0889 56.293 73.9857 55.8806 74.0889 55.3651C74.1921 54.8496 74.708 54.0248 74.708 53.5093C74.8112 51.9628 73.7793 48.9729 74.5016 48.5605C74.8112 48.3543 75.1207 48.045 75.6367 47.9419C75.843 47.8388 76.6685 48.1481 76.9781 48.1481C76.5653 49.076 78.1131 51.5504 77.9068 52.9938C77.5972 56.293 75.4303 58.1489 73.5729 60.0047C73.3666 60.2109 73.5729 60.4171 73.6761 60.6233C74.0889 60.9326 74.9144 60.8295 75.4303 60.7264C76.1526 60.6233 76.4622 60.314 76.8749 60.1078C77.0813 60.0047 77.2876 60.1078 77.494 60.1078C78.01 60.0047 78.4227 59.283 78.7323 58.8706C78.7323 58.8706 79.3514 58.252 79.4546 59.0768C79.4546 59.9016 79.3514 60.7264 79.4546 61.5512C79.5578 62.4791 81.3119 65.2628 82.2406 65.3659C84.3043 65.6752 82.1374 63.0977 82.1374 62.8915C81.8279 62.0667 81.5183 60.7264 81.5183 59.6954C81.5183 59.283 81.8279 58.5613 81.931 58.1489C81.931 57.9427 81.8279 57.5303 81.931 57.4272C82.1374 57.1179 83.1693 57.0148 83.4788 56.6023C83.582 56.4992 83.4788 56.293 83.4788 56.0868C83.4788 55.7775 83.7884 55.262 83.9948 54.9527C84.098 54.7465 84.3043 54.6434 84.6139 54.9527C84.8203 55.1589 84.9235 55.7775 85.233 56.1899L85.5426 56.4992C85.9553 56.7054 86.4712 56.3961 86.3681 56.4992C86.7808 56.3961 86.6776 55.9837 86.884 55.8806L87.0904 55.7775C88.0191 54.8496 85.9553 54.0248 85.9553 53.2C85.9553 52.2721 86.1617 51.138 85.8521 50.107C85.7489 49.7977 85.3362 49.4884 85.233 49.2822C85.3362 48.4574 85.6458 47.8388 85.6458 47.4264C85.7489 46.6016 85.5426 45.3644 85.7489 45.0551C85.8521 44.8489 86.1617 44.7458 86.5744 44.8489C86.884 44.952 87.0904 45.4675 87.2967 45.5706C88.1222 46.1892 89.0509 46.6016 90.3923 46.3954C90.5987 46.3954 90.7019 46.0861 90.7019 46.0861C90.8051 45.8799 90.8051 45.5706 90.5987 45.2613C90.0828 44.6427 88.2254 44.1272 88.1222 43.8179C88.0191 43.6117 87.7095 43.1993 88.1222 43.0962C87.9159 43.1993 89.2573 43.0962 89.7732 42.9931C90.3923 42.89 90.4955 42.2714 90.9083 41.9621C91.5274 41.6528 92.4561 41.9621 92.7656 41.3435C92.972 40.9311 92.7656 40.4156 92.972 40.1063C93.1784 39.6939 94.0039 39.5907 94.3134 39.2814C94.4166 39.1783 94.4166 38.7659 94.3134 38.6628C94.2102 38.0442 92.5592 38.1473 91.8369 37.3225C91.6306 37.0132 91.7338 36.807 91.8369 36.6008C92.0433 35.8791 93.4879 36.2915 93.9007 35.6729C94.0039 35.3636 94.107 34.6419 94.0039 34.5388C93.0752 33.4047 91.0115 33.9202 89.67 33.4047C88.9477 33.0954 88.1222 32.5799 87.3999 32.2706C86.4712 31.9613 85.8521 31.8582 84.9235 31.5489C84.7171 31.4458 84.3043 31.1365 84.098 31.0334C83.0661 30.621 82.3438 30.5179 81.3119 30.1055C81.2087 30.1055 80.8992 29.8993 80.796 29.7962C80.3832 29.59 80.2801 29.59 79.8673 29.4869C78.3195 28.9714 76.359 28.4559 74.1921 28.559C73.2634 28.6621 72.1283 28.4559 70.5805 28.8683C70.0646 28.9714 69.3423 29.4869 68.8264 29.59C68.5168 29.6931 68.2072 29.7962 67.8977 29.8993C67.4849 30.1055 67.0722 30.3117 66.4531 30.4148C64.6989 30.8272 62.4288 30.4148 60.7778 30.621C59.23 30.8272 58.4045 31.7551 57.1663 32.2706C56.7535 32.3737 56.6503 32.3737 56.2376 32.4768C56.0312 32.5799 55.5153 32.683 55.3089 32.7861C54.793 33.0954 54.4834 33.0954 53.8643 33.4047C53.5548 33.5078 53.2452 33.8171 52.9356 33.9202C52.5229 34.1264 52.5229 34.2295 52.1101 34.4357L51.8006 34.6419C51.8006 34.6419 51.1815 35.1574 51.0783 35.2605C50.8719 35.4667 50.5623 35.8791 50.356 36.0853C49.7369 36.807 48.8082 37.7349 47.9827 38.3535C47.6731 38.5597 47.4667 38.5597 47.2604 38.7659C46.9508 38.9721 46.7444 39.2814 46.4349 39.4876C45.8158 40.0031 45.0935 40.3125 44.3712 40.6218V40.828C43.752 41.2404 43.752 41.3435 43.1329 41.7559C42.7202 42.0652 42.5138 42.4776 42.2042 42.7869C41.9979 42.9931 41.6883 43.6117 41.4819 43.8179C40.6564 44.952 40.4501 46.6016 39.8309 48.045C39.6246 48.4574 38.2831 50.4163 37.9736 50.5194L37.7672 50.7256C37.5608 50.9318 37.5608 50.9318 37.3545 51.138C36.9417 51.4473 36.529 51.6535 36.2194 52.169C36.013 52.4783 35.8067 52.8907 35.6003 53.3031C35.2907 53.9217 34.6716 54.5403 34.3621 55.1589C34.2589 55.3651 34.1557 55.6744 34.0525 55.8806L33.9493 55.9837C33.7429 56.1899 33.5366 57.0147 33.5366 57.0147C33.227 57.6334 32.6079 58.0458 31.7824 59.283C30.7505 59.3861 27.2422 58.4582 24.8689 57.324C25.3848 57.9427 28.0677 59.6954 31.1633 60.0047C30.9569 60.314 30.9569 60.6233 30.5442 60.7264C29.3059 61.0357 27.139 60.314 24.2498 59.283C24.4562 59.6954 27.0358 61.2419 30.7505 61.4481C30.2346 62.1698 25.0753 61.9636 20.9478 60.8295ZM44.5775 67.6341C44.3712 67.3248 44.5775 66.8093 44.9903 66.6031C45.8158 66.1907 46.1253 66.7062 46.3317 66.9124C47.1572 68.1496 48.1891 69.7992 48.9114 70.4178C48.2922 70.5209 45.6094 69.6961 44.5775 67.6341ZM51.3878 80.2124C50.9751 80.2124 48.1891 77.8411 48.6018 76.3977C49.4273 77.0163 51.2847 78.2535 51.491 78.2535C51.8006 78.4597 52.007 80.0062 51.3878 80.2124ZM54.6898 80.2124C54.2771 79.9031 51.5942 77.0163 52.3165 75.7791C53.0388 76.5008 55.1025 78.3566 55.8249 78.5628C56.0312 79.0783 55.928 80.6248 54.6898 80.2124ZM54.8962 69.3868C55.4121 70.1085 56.0312 70.5209 55.928 72.0674C55.928 72.4798 56.0312 72.4798 56.3408 72.4798C56.6503 72.3767 56.444 70.624 57.2695 70.7271C57.9918 70.8302 57.4758 71.8612 57.8886 72.9953C57.9918 73.4077 58.8173 74.8512 58.6109 77.3256C58.6109 77.9442 57.3727 78.769 56.6503 78.3566C56.1344 78.0473 56.1344 77.6349 55.7217 74.9543C55.6185 73.4077 53.6579 72.8922 52.9356 72.1705C52.1101 71.5519 52.6261 71.3457 52.4197 70.2116C52.007 68.6651 50.1496 67.9434 50.7687 66.9124C50.9751 66.7062 51.1815 66.3969 51.6974 66.6031C51.9038 67.3248 53.7611 67.9434 54.8962 69.3868ZM42.101 64.5411C42.3074 64.438 43.1329 64.1287 43.3393 64.0256C44.1648 63.7163 44.6807 64.2318 45.403 63.7163C45.6094 63.6132 45.8158 63.3039 45.919 63.2008C46.0221 63.0977 46.3317 63.0977 46.5381 62.9946C46.9508 62.6853 47.7763 61.7574 48.2922 61.6543C48.6018 61.5512 48.6018 61.6543 48.8082 61.6543C48.8082 61.6543 49.0145 61.5512 49.0145 62.0667C48.9114 62.9946 51.0783 62.0667 52.4197 62.376C53.3484 62.5822 54.2771 62.8915 54.0707 63.5101C54.0707 63.407 53.7611 63.7163 53.7611 63.7163C53.142 64.2318 52.6261 63.7163 52.2133 63.6132C51.5942 63.5101 51.1815 63.7163 50.6655 63.6132L49.9432 63.407C49.5305 63.407 48.8082 63.6132 48.4986 63.6132C47.8795 63.6132 47.5699 63.407 46.9508 63.5101C46.6413 63.5101 46.2285 63.9225 46.0221 64.0256C45.8158 64.1287 45.6094 64.1287 45.403 64.2318C45.2998 64.2318 44.9903 64.438 44.7839 64.5411C44.1648 64.8504 43.8552 64.8504 43.1329 65.0566L42.7202 65.1597C41.7915 65.2628 41.7915 64.6442 42.101 64.5411ZM39.9341 68.0465C40.8628 67.8403 41.1724 68.0465 41.6883 69.1806C41.9979 69.7992 42.7202 70.7271 43.0297 71.1395C41.8947 71.2426 40.1405 69.6961 39.6246 68.8713C39.2118 68.4589 39.7278 68.1496 39.9341 68.0465ZM31.9888 64.438C32.2983 64.7473 32.6079 65.0566 32.9174 65.3659C32.6079 65.469 31.4728 65.5721 30.1314 65.7783C30.7505 65.2628 31.4728 64.8504 31.9888 64.438ZM30.8537 62.376C30.9569 62.6853 31.0601 63.0977 31.2665 63.407C31.2665 63.5101 31.3697 63.5101 31.3697 63.6132C30.5442 63.6132 28.9964 63.5101 27.4486 63.407C28.6868 63.0977 29.8219 62.6853 30.3378 62.376C30.5442 62.376 30.6473 62.376 30.8537 62.376Z" fill="#8B0029"/>
<path d="M8.25629 44.9519C8.35948 44.7457 9.39134 41.5495 9.39134 41.5495L7.94673 41.034C7.94673 41.034 6.91487 44.2302 6.81168 44.4364C6.60531 44.3333 4.23202 43.6115 4.02564 43.5084C4.23202 42.7867 5.47026 39.2813 5.47026 39.2813V39.1782L4.02564 38.6627L1.96191 44.8488H2.0651L12.6933 48.4573L14.9634 41.5495L13.4156 41.034C13.4156 41.034 11.7646 45.8798 11.7646 46.086C11.6614 46.086 8.46266 44.9519 8.25629 44.9519Z" fill="#8B0029"/>
<path d="M120.936 80.1093L121.452 78.3566L111.959 70.624L111.443 72.2736C111.443 72.2736 114.848 74.8511 115.054 74.9542C115.054 75.0573 113.919 78.6659 113.816 78.8721C113.61 78.8721 109.379 79.1814 109.379 79.1814L108.76 81.2434L120.936 80.1093ZM115.364 78.769C115.467 78.4597 116.189 76.2946 116.189 75.9853C116.396 76.1915 118.872 78.1504 119.285 78.4597C118.872 78.5628 115.673 78.769 115.364 78.769Z" fill="#8B0029"/>
<path d="M62.4287 112.483L62.7383 123.824L64.6988 123.721L64.3893 112.38H64.2861L62.4287 112.483Z" fill="#8B0029"/>
<path d="M120.007 39.2814L109.275 43.0961L109.998 44.9519L120.626 41.1372V41.0341L120.007 39.2814Z" fill="#8B0029"/>
<path d="M123.825 63.7163L112.474 63.0977L112.371 65.0566L123.722 65.6752V65.5721L123.825 63.7163Z" fill="#8B0029"/>
<path d="M1.13573 72.5829L12.3831 70.727L12.0735 68.7681L0.826172 70.6239V70.727L1.13573 72.5829Z" fill="#8B0029"/>
<path d="M103.704 99.9045L102.053 100.42L100.711 100.832C99.6796 101.142 98.9572 101.039 98.5445 100.626C98.2349 100.317 98.1318 99.9045 98.2349 99.389C98.3381 98.9766 98.6477 98.5642 99.0604 98.1518C99.7827 97.5332 100.711 97.0177 101.434 96.9146H101.64L100.299 95.4712H100.195C99.4732 95.8836 98.7509 96.296 98.0286 96.9146C97.2031 97.7394 96.584 98.5642 96.3776 99.4921C96.068 100.523 96.2744 101.451 96.9967 102.173C97.719 102.894 98.7509 103.204 99.8859 102.998L100.505 102.791L102.878 102.07C103.91 101.76 104.633 101.863 105.148 102.379C105.458 102.791 105.561 103.204 105.458 103.822C105.355 104.338 105.045 104.75 104.633 105.163C103.704 105.987 102.672 106.503 101.537 106.812L101.331 106.915L102.569 108.256L102.982 108.049C103.91 107.637 104.736 107.122 105.561 106.297C106.593 105.369 107.212 104.235 107.315 103.204C107.419 102.173 107.109 101.245 106.387 100.523C105.871 99.9045 104.942 99.6983 103.704 99.9045Z" fill="#8B0029"/>
<path d="M103.6 22.7852L102.981 21.2387L102.465 19.8984C102.052 18.8674 102.155 18.1457 102.465 17.7333C102.774 17.424 103.187 17.2178 103.703 17.424C104.116 17.5271 104.529 17.7333 104.941 18.1457C105.664 18.8674 106.18 19.6922 106.283 20.4139V20.6201L107.624 19.1767V19.0736C107.211 18.3519 106.696 17.6302 105.973 17.1147C105.148 16.2899 104.219 15.7744 103.29 15.6713C102.259 15.4651 101.33 15.6713 100.711 16.4961C99.9884 17.3209 99.7821 18.2488 100.092 19.486L100.298 20.1046L101.227 22.4759C101.639 23.5069 101.536 24.2286 101.123 24.7442C100.814 25.1566 100.298 25.2597 99.7821 25.1566C99.2661 25.0535 98.7502 24.8473 98.3375 24.4348C97.4088 23.61 96.7897 22.579 96.4801 21.4449L96.3769 21.2387L95.1387 22.579L95.345 22.9914C95.7578 23.8162 96.4801 24.6411 97.3056 25.4659C98.3375 26.3938 99.4725 26.9093 100.504 27.0124C101.536 27.1155 102.465 26.7031 103.084 25.8783C103.806 24.9504 103.91 24.0224 103.6 22.7852Z" fill="#8B0029"/>
<path d="M54.8965 120.834C54.8965 120.834 53.4519 118.153 53.0392 117.535C53.4519 117.432 54.1742 117.225 54.7934 116.813C55.4125 116.298 55.8252 115.679 56.0316 114.957C56.1348 114.132 56.0316 113.411 55.4125 112.792C54.8965 112.173 54.071 111.761 52.936 111.555L49.3245 110.936H49.2213L47.2607 122.071L49.2213 122.38V122.174C49.2213 121.762 49.3245 121.246 49.5308 119.906C49.5308 119.906 50.7691 112.792 50.8723 112.586C52.7296 112.895 53.3487 113.204 53.6583 113.514C53.9679 113.823 54.071 114.235 53.9679 114.854C53.7615 116.091 52.7296 116.71 50.7691 116.607H50.5627L53.5551 122.38C53.8647 122.999 54.587 123.411 55.4125 123.618L56.9603 123.927L56.6507 123.618C56.1348 122.896 55.4125 121.865 54.8965 120.834Z" fill="#8B0029"/>
<path d="M5.9858 54.4372C5.57305 54.8496 5.1603 55.3651 4.95393 56.0868C4.438 55.0558 3.81888 54.5403 2.8902 54.5403C2.06471 54.5403 1.44559 54.8496 0.929655 55.4682C0.413723 56.0868 0.20735 57.0147 0.104163 58.0457L0.000976562 61.3449L11.3515 61.8604L11.4547 59.6953C11.4547 58.7674 11.5579 58.1488 11.4547 57.7364C11.4547 57.0147 11.2483 56.3961 11.0419 55.7775C10.7324 55.1589 10.4228 54.6434 9.8037 54.231C9.28776 53.8186 8.66864 53.6124 8.04953 53.5093C7.32722 53.6124 6.60491 53.8186 5.9858 54.4372ZM1.44559 59.4891L1.54877 58.5612C1.54877 57.9426 1.65196 57.4271 1.96152 57.1178C2.16789 56.8085 2.58064 56.6023 3.09657 56.7054C3.50932 56.7054 4.02525 56.8085 4.33481 57.4271C4.54118 57.8395 4.54118 58.5612 4.54118 59.1798V59.5922C4.438 59.5922 1.54877 59.4891 1.44559 59.4891ZM9.59732 56.6023C9.90688 57.1178 10.0101 57.6333 9.90688 58.4581C9.90688 58.4581 9.8037 59.6953 9.8037 59.7984C9.70051 59.7984 5.88261 59.5922 5.88261 59.5922V58.5612C5.88261 57.7364 6.08898 57.0147 6.39854 56.4992C6.81129 55.8806 7.43041 55.6744 8.04953 55.6744C8.77183 55.7775 9.28776 56.1899 9.59732 56.6023Z" fill="#8B0029"/>
<path d="M69.5488 111.967V112.07L69.8584 113.411C69.8584 113.411 72.7476 112.792 72.954 112.689C73.0572 112.895 75.1209 122.277 75.1209 122.277L77.0814 121.865C77.0814 121.865 75.0177 112.483 74.9145 112.277C75.1209 112.277 78.1133 111.555 78.1133 111.555L77.8038 110.111L69.5488 111.967Z" fill="#8B0029"/>
<path d="M112.68 25.3629L112.577 25.466L111.442 26.1877C111.442 26.1877 112.99 28.6621 113.093 28.8683C112.887 28.9714 104.632 33.9202 104.632 33.9202L105.664 35.5698C105.664 35.5698 113.919 30.621 114.125 30.5179C114.228 30.7241 115.776 33.3016 115.776 33.3016L117.014 32.5799L112.68 25.3629Z" fill="#8B0029"/>
<path d="M122.794 48.3541H122.69L121.349 48.5603C121.349 48.5603 121.659 51.4471 121.762 51.6533C121.555 51.6533 111.959 52.7874 111.959 52.7874L112.165 54.7463C112.165 54.7463 121.762 53.6122 121.968 53.6122C121.968 53.8184 122.381 56.8084 122.381 56.8084L123.825 56.6022L122.794 48.3541Z" fill="#8B0029"/>
<path d="M16.5107 18.9705L17.5426 20.0015C17.5426 20.0015 19.6063 17.9395 19.8127 17.8364C20.0191 18.0426 26.7262 24.9503 26.7262 24.9503L28.1708 23.61C28.1708 23.61 21.4637 16.7023 21.2573 16.4961C21.4637 16.2899 23.6306 14.2278 23.6306 14.2278L22.5987 13.1968L16.5107 18.9705Z" fill="#8B0029"/>
<path d="M5.57289 86.8107L16.2011 82.6867L13.5183 75.882L12.0736 76.5006L14.0342 81.4495L4.85059 85.058L5.57289 86.8107Z" fill="#8B0029"/>
<path d="M31.7822 102.791C31.7822 102.791 24.1464 107.225 23.5273 107.534C23.7336 106.915 26.8292 98.6672 26.8292 98.6672L25.0751 97.2238L21.0508 108.668L22.3922 109.802L33.0204 103.822L32.9172 103.719L31.7822 102.791Z" fill="#8B0029"/>
<path d="M19.4003 29.1776C19.4003 29.1776 16.4079 29.4869 15.6856 29.4869C15.7888 29.0745 15.892 28.3528 15.6856 27.6311C15.4792 26.8062 15.0665 26.1876 14.4474 25.7752C13.7251 25.3628 13.0028 25.1566 12.2805 25.4659C11.455 25.6721 10.7327 26.2907 10.1135 27.2186L8.15299 30.2086L8.0498 30.3117L17.543 36.4977L18.678 34.8481L18.5748 34.745C18.2653 34.5388 17.7493 34.3326 16.6143 33.5078C16.6143 33.5078 10.6295 29.59 10.4231 29.3838C11.455 27.8373 12.0741 27.3217 12.3836 27.2186C12.7964 27.0124 13.2091 27.1155 13.7251 27.4249C14.7569 28.1466 14.8601 29.2807 14.1378 31.0334L14.0346 31.2396L20.5354 30.7241C21.2577 30.621 21.8768 30.2086 22.3927 29.4869L23.3214 28.1466L22.7023 28.4559C21.7736 28.7652 20.5354 29.0745 19.4003 29.1776Z" fill="#8B0029"/>
<path d="M53.6583 5.56748L52.0074 5.05197L50.5628 4.74267C49.5309 4.43337 49.015 3.91787 48.9118 3.40236C48.8086 2.88686 49.015 2.57756 49.4277 2.26826C49.7373 1.95895 50.15 1.85585 50.7691 1.75275C51.6978 1.64965 52.8329 1.75275 53.3488 2.06206H53.5552L53.2456 0.103143H53.1424C52.3169 4.27105e-05 51.4914 4.27105e-05 50.5628 0.103143C49.4277 0.309345 48.499 0.721747 47.7767 1.34035C46.9512 2.06206 46.6417 2.88686 46.848 3.91787C47.0544 4.94887 47.6735 5.77368 48.8086 6.18608L49.4277 6.39228L51.801 7.11399C52.8329 7.42329 53.452 7.93879 53.5552 8.5574C53.6584 9.0729 53.452 9.4853 53.0392 9.89771C52.6265 10.207 52.1106 10.5163 51.5946 10.6194C50.3564 10.8256 49.2213 10.7225 48.0863 10.3101L47.8799 10.207L48.1895 12.0628L48.6022 12.1659C49.5309 12.3721 50.5628 12.3721 51.6978 12.1659C53.0392 11.9597 54.1743 11.3411 54.8966 10.5163C55.6189 9.6915 55.8253 8.7636 55.6189 7.73259C55.4125 6.70158 54.7934 6.08298 53.6583 5.56748Z" fill="#8B0029"/>
<path d="M34.2594 5.77374L32.6084 6.59855L33.6403 18.8675L35.1881 18.0427C35.1881 18.0427 34.6721 13.7125 34.6721 13.6094C34.7753 13.5063 38.1805 11.8567 38.2837 11.7536C38.3868 11.8567 41.5856 14.7435 41.5856 14.7435L43.5462 13.8156L34.2594 5.77374ZM37.0454 10.6195C36.7359 10.7226 34.7753 11.7536 34.4658 11.9598C34.4658 11.6505 34.1562 8.45436 34.053 7.93886C34.4658 8.35126 36.839 10.4133 37.0454 10.6195Z" fill="#8B0029"/>
<path d="M95.9645 9.17604L94.7263 8.55744L91.3211 14.6404C90.2892 16.4962 89.3606 17.2179 87.0905 15.9807C85.6458 15.1559 85.3363 13.8156 86.3681 11.9598L89.7733 5.87682L88.0191 4.94891L84.614 11.0318C84.2012 11.7536 83.9949 12.2691 83.8917 12.6815C83.6853 13.3001 83.6853 13.9187 83.7885 14.5373C84.098 15.5683 84.8204 16.4962 85.9554 17.1148L86.7809 17.5272C87.9159 18.1458 89.051 18.352 90.0829 17.9396C90.702 17.7334 91.1147 17.4241 91.5275 16.9086C91.7338 16.5993 92.0434 16.1869 92.4561 15.3621L95.8613 9.27914L95.9645 9.17604Z" fill="#8B0029"/>
<path d="M36.6323 112.38C36.8387 112.483 39.9343 113.926 39.9343 113.926L40.5534 112.586C40.5534 112.586 37.4578 111.142 37.2515 111.039C37.3547 110.833 38.3865 108.565 38.4897 108.359C39.212 108.668 42.514 110.215 42.514 110.318L42.6172 110.421L43.2363 109.08L37.2515 106.297V106.4L32.5049 116.504L39.1088 119.597L39.8311 118.153C39.8311 118.153 35.1877 115.988 34.9814 115.885C35.0845 115.679 36.5292 112.586 36.6323 112.38Z" fill="#8B0029"/>
<path d="M87.2968 105.781L85.749 106.606L87.0905 118.772L88.6382 117.947C88.6382 117.947 88.0191 113.72 88.0191 113.514C88.1223 113.411 91.4243 111.658 91.6307 111.555C91.7338 111.658 95.0358 114.545 95.0358 114.545L96.8932 113.514L87.2968 105.781ZM90.2892 110.627C89.9797 110.73 88.0191 111.864 87.7096 111.967C87.7096 111.658 87.2968 108.565 87.1936 108.05C87.6064 108.359 89.9797 110.421 90.2892 110.627Z" fill="#8B0029"/>
<path d="M79.6605 1.44342L77.8032 0.927917L75.5331 8.45426C75.3267 9.07287 75.2235 9.48527 75.0171 9.69147C74.7076 10.1039 74.2948 10.3101 73.5725 10.1039C73.0566 10.0008 72.2311 9.48527 72.2311 9.48527L71.8184 10.9287C72.5407 11.4442 73.263 11.6504 73.5725 11.7535C74.5012 11.9597 75.5331 11.8566 76.3586 11.1349C76.6681 10.8256 77.0809 10.3101 77.3904 9.17597L79.6605 1.44342Z" fill="#8B0029"/>
</svg>
