<svg width="180" height="180" viewBox="0 0 180 180" fill="none" xmlns="http://www.w3.org/2000/svg">
<g clip-path="url(#clip0_3574_53728)">
<path d="M77.5511 135.038C77.5511 135.038 77.5511 134.888 77.4011 134.888H75.6011C75.3011 134.888 75.4511 135.038 75.4511 135.038C76.0511 137.436 75.7511 140.583 75.6011 141.482C75.6011 141.482 75.4511 141.782 75.7511 141.782H77.5511C77.8511 141.782 77.7011 141.632 77.7011 141.632C76.9511 138.185 77.4011 135.787 77.5511 135.038Z" fill="#8B0029"/>
<path d="M82.3513 134.588C79.5013 134.888 79.6513 138.185 79.6513 138.185C79.8013 141.182 82.9513 141.782 82.9513 141.782C82.0513 144.03 79.8013 144.779 79.8013 144.779C79.2013 144.929 79.6513 145.079 79.6513 145.079C80.4013 145.229 81.3013 144.929 81.3013 144.929C85.5013 143.131 85.5013 138.634 85.5013 138.634C85.8013 134.288 82.3513 134.588 82.3513 134.588ZM83.4013 140.733C82.0513 140.733 81.7513 138.634 81.7513 138.634C81.4513 136.386 82.3513 136.236 82.3513 136.236C83.2513 135.937 83.7013 137.885 83.7013 137.885C84.1513 140.133 83.4013 140.733 83.4013 140.733Z" fill="#8B0029"/>
<path d="M89.8509 134.588C89.8509 134.588 87.3009 134.588 87.1509 138.035C87.1509 138.035 87.0009 141.782 90.3009 141.632C90.3009 141.632 93.4509 141.482 92.8509 137.286C92.8509 137.286 92.5509 134.438 89.8509 134.588ZM90.4509 140.433C89.2509 140.883 89.1009 138.335 89.1009 138.335C88.9509 135.937 90.0009 135.787 90.0009 135.787C91.0509 135.487 91.2009 137.286 91.2009 137.286C91.6509 139.983 90.4509 140.433 90.4509 140.433Z" fill="#8B0029"/>
<path d="M99.4513 134.438C98.5513 134.888 95.1013 134.738 95.1013 134.738L94.5013 138.335C94.5013 138.335 97.9513 138.485 97.0513 141.182C97.0513 141.182 96.3013 143.131 93.6013 142.531C93.3013 142.531 93.3013 142.681 93.3013 142.681C93.1513 142.831 93.4513 142.981 93.4513 142.981C94.9513 143.58 96.3013 143.281 96.3013 143.281C99.1513 142.681 99.3013 140.283 99.3013 140.283C99.3013 137.136 96.4513 137.136 96.4513 137.136L96.6013 136.087L98.2513 135.937C99.3013 135.787 99.6013 134.738 99.6013 134.738C99.6013 134.288 99.4513 134.438 99.4513 134.438Z" fill="#8B0029"/>
<path d="M83.2508 82.5811C83.4008 82.731 83.4008 83.1806 83.7008 83.1806C84.0008 83.1806 84.3008 83.0308 84.4508 82.5811C85.2008 81.3821 85.5008 79.2839 85.2008 77.6353C85.2008 77.4854 84.7508 77.0358 84.6008 76.8859C84.4508 76.736 84.4508 76.2864 84.3008 76.1365C84.0008 76.1365 83.8508 75.8368 83.5508 76.1365L83.1008 76.5861C82.6508 77.1856 83.4008 78.6844 83.2508 79.5836C83.1008 80.4829 82.8008 81.9816 83.2508 82.5811Z" fill="#8B0029"/>
<path d="M72.7511 77.0358C72.6011 77.0358 72.6011 77.0358 72.7511 77.0358C72.7511 76.8859 72.7511 76.8859 72.7511 77.0358C72.9011 77.0358 73.3511 76.8859 73.5011 76.736C73.8011 76.4363 73.3511 75.9867 73.3511 75.9867C72.1511 75.5371 70.9511 76.2864 69.1511 76.1365C68.2511 76.1365 67.0512 75.537 65.8512 75.8368C64.5012 76.1365 62.7012 76.736 61.8012 77.4854C61.8012 77.4854 61.3512 78.2348 61.9512 78.0849C62.4012 77.935 62.8512 78.2348 63.1512 78.0849L63.6012 77.935C64.2012 77.4854 64.8012 77.6353 65.4012 77.7852C65.7012 77.7852 66.6012 78.2348 66.9011 78.2348C67.3511 78.2348 69.6011 78.5345 72.1511 78.8343C72.1511 78.8343 73.5011 78.6844 73.0511 78.2348C73.2011 78.5345 73.0511 78.0849 72.4511 77.935L72.3011 77.7852C72.4511 77.6353 72.0011 77.1857 72.7511 77.0358Z" fill="#8B0029"/>
<path d="M72.7499 77.0352C72.7499 76.8864 72.7499 76.8864 72.7499 77.0352C72.601 77.0352 72.601 77.0352 72.7499 77.0352Z" fill="#8B0029"/>
<path d="M77.7008 69.6921C77.7008 69.8419 77.5508 68.6429 76.5008 68.6429C76.3508 68.6429 75.7508 68.7928 75.6008 68.9427C73.8008 69.6921 73.8008 71.0409 72.7508 72.3898C72.6008 72.5397 72.3008 72.6896 72.1508 72.6896C71.8508 73.1392 71.8508 73.8886 71.4008 74.1883C71.1008 74.3382 70.2008 74.638 70.0508 74.7878C69.7508 75.0876 70.5008 75.2374 70.5008 75.2374C73.9508 75.0876 73.3508 73.1392 74.8508 71.1908C75.4508 70.5913 77.5508 70.5913 77.7008 69.6921Z" fill="#8B0029"/>
<path d="M90.7511 80.3332C90.7511 80.1833 90.1511 79.1342 90.1511 78.9843C89.7011 77.9352 89.1011 77.036 88.9511 75.837C88.6511 73.7387 89.8511 72.8395 90.1511 71.7903C90.4511 70.8911 90.3011 68.3432 90.1511 67.2941C90.1511 66.9943 88.8011 63.8469 88.6511 63.8469C88.3511 63.5472 88.0511 63.3973 87.6011 63.5472L87.3011 63.8469C87.1511 63.9968 87.0011 64.2966 87.0011 64.5963C86.8511 65.3457 86.4011 66.0951 86.1011 67.1442C85.9511 67.5938 85.5011 68.3432 85.3511 68.7928C84.7511 70.4415 85.0511 72.8395 85.5011 74.1883C85.8011 75.2375 87.3011 76.7362 87.3011 77.9352C87.3011 79.5838 85.2011 80.7828 85.5011 83.031C85.6511 83.6305 86.2511 84.23 86.5511 84.8295C87.3011 87.3774 85.8011 90.6746 86.7011 93.3724C86.7011 93.2225 86.8511 93.822 87.7511 93.5222C87.9011 93.5222 87.9011 93.2225 88.3511 93.2225L88.6511 92.9227C88.8011 92.7729 89.1011 92.623 89.1011 92.4731L89.5511 92.1734C90.0011 91.5739 90.3011 91.1242 90.4511 90.225C90.7511 88.1267 89.8511 86.0285 90.1511 83.9302C90.3011 82.8811 90.9011 81.5322 90.7511 80.3332Z" fill="#8B0029"/>
<path d="M106.501 61.5988C106.801 62.6479 109.351 64.5963 111.301 64.2966C111.751 64.2966 113.251 63.5472 113.551 63.2475C113.851 63.0976 114.001 62.4981 114.151 62.1983C114.751 61.449 115.501 61.1492 116.251 60.5497C116.401 60.5497 116.701 59.9502 116.851 59.9502L117.151 59.6504C117.901 58.3016 117.151 57.7021 115.651 57.8519C114.901 58.0018 114.001 58.6013 113.401 58.9011C112.201 59.3507 111.301 59.2008 109.801 59.3507C109.201 59.3507 107.551 59.2008 106.801 59.5006C106.501 59.6505 106.201 60.6996 106.501 61.5988Z" fill="#8B0029"/>
<path d="M109.201 57.4022C109.801 57.2523 110.851 56.8027 111.301 56.6528C111.601 56.5029 112.051 56.8027 112.351 56.6528C113.251 56.353 114.901 54.7044 112.951 54.4047C112.201 54.4047 110.101 55.154 109.501 55.3039C108.901 55.4538 108.451 55.6037 107.851 55.9034C107.701 56.0533 106.951 56.6528 107.101 56.5029C107.101 56.5029 106.651 56.9526 107.401 57.1024C107.551 57.2523 108.451 57.5521 109.201 57.4022Z" fill="#8B0029"/>
<path d="M91.6511 59.6506C93.0011 59.3508 93.0011 60.2501 93.6011 60.4C94.8011 60.5498 94.5011 59.5007 94.5011 59.5007C94.3511 58.9012 93.4511 57.7022 93.0011 57.2526C92.5511 56.9528 92.1011 56.9528 91.8011 56.5032C91.5011 56.0536 91.5011 54.405 91.0511 53.9553C90.9011 53.8055 90.1511 53.6556 90.1511 53.6556C88.6511 53.5057 84.1511 59.6506 86.7011 60.8496C87.3011 61.1493 87.7511 60.8496 88.3511 60.9995L89.1011 61.2992C90.4511 61.4491 90.7511 59.9503 91.6511 59.6506Z" fill="#8B0029"/>
<path d="M82.3511 65.7953C82.8011 65.1958 82.6511 64.1467 82.9511 63.2474C82.9511 63.0976 83.2511 62.6479 83.2511 62.4981L83.4011 61.2991C83.2511 60.5497 82.8011 60.8494 82.8011 60.8494C81.7511 61.4489 79.6511 62.1983 79.2011 63.2474C78.9011 63.6971 78.9011 64.1467 78.7511 64.7462C78.7511 64.7462 78.4511 64.8961 78.3011 65.0459C77.2511 65.0459 76.3511 65.0459 75.4511 65.1958C74.7011 65.3457 73.6511 66.0951 72.9011 66.2449C71.2511 66.5447 70.0511 65.7953 68.5511 66.0951C67.9511 66.2449 67.5011 66.8444 66.9011 67.1442C66.4511 67.2941 66.3011 67.2941 65.8511 67.7437L65.5511 68.1933C65.5511 68.3432 65.4011 68.6429 65.2511 68.9427C64.9511 69.3923 64.8011 69.9918 64.6511 70.4414C64.5011 70.8911 64.2011 72.2399 64.0511 72.6896C63.9011 72.9893 63.3011 73.4389 63.1511 73.7387C63.1511 73.8886 63.0011 74.0384 63.1511 74.3382C62.8511 74.0384 63.0011 74.6379 64.2011 74.6379C65.7011 74.6379 68.7011 73.7387 68.7011 73.7387L70.2011 72.9893C70.5011 72.6896 71.7011 71.9402 71.8511 71.6404C72.9011 70.2916 75.9011 65.3457 78.1511 66.6946L78.6011 66.9943C79.2011 67.8936 78.4511 70.4414 78.0011 71.0409L77.5511 71.6404C77.1011 71.7903 76.8011 72.8394 76.8011 73.2891C76.6511 74.0384 76.9511 74.7878 76.9511 75.2374C77.1011 76.1367 77.1011 77.3357 76.6511 78.5347C76.5011 78.8344 76.2011 79.1342 76.3511 79.7337C76.5011 80.4831 77.4011 80.9327 77.5511 81.5322C77.7011 81.8319 77.8511 81.8319 77.5511 82.4314C77.4011 82.7312 76.5011 83.1808 76.3511 83.4806C76.0511 83.7803 76.3511 84.3798 76.5011 84.5297C77.1011 85.1292 77.7011 85.1292 78.1511 85.8786C78.9011 86.7778 78.7511 87.5272 80.4011 87.6771C81.6011 87.8269 83.2511 87.8269 82.5011 86.1783L82.0511 85.4289C81.6011 84.3798 80.8511 83.4806 80.8511 82.2816C80.7011 80.7828 81.9011 80.0334 81.4511 78.8344C81.0011 77.9352 79.2011 78.0851 79.0511 76.8861C79.0511 76.2866 79.6511 74.7878 79.8011 74.1883C79.9511 73.2891 79.6511 72.8394 79.9511 72.0901C80.1011 71.4906 80.8511 70.8911 81.0011 70.2916C81.1511 69.0926 80.2511 68.3432 80.7011 66.9943C80.8511 66.2449 81.9011 66.3948 82.3511 65.7953ZM71.2511 70.4414C70.2011 70.7412 70.2011 68.4931 67.6511 69.3923C67.5011 69.3923 66.9011 69.9918 66.7511 70.1417C66.4511 70.7412 66.6011 72.3898 66.3011 72.5397C66.3011 72.5397 65.4011 72.8394 65.5511 71.6404C65.8511 69.6921 66.1511 69.3923 67.2011 68.6429C67.3511 68.4931 67.6511 68.1933 67.8011 68.1933C69.0011 67.8936 71.1011 68.3432 71.4011 68.9427C71.8511 69.3923 71.2511 70.4414 71.2511 70.4414Z" fill="#8B0029"/>
<path d="M30.4509 88.4265C30.3009 89.026 37.8009 90.6746 42.0009 90.6746C41.2509 90.9743 39.4509 91.424 38.2509 91.8736C36.3009 91.7237 33.6009 91.2741 33.1509 91.1242C33.3009 91.5738 35.1009 92.0235 36.7509 92.3232C35.2509 92.9227 33.0009 93.2225 32.1009 93.3723C32.7009 93.5222 35.1009 93.0726 37.6509 92.4731C39.9009 92.9227 43.3509 93.3723 45.1509 93.2225C44.7009 93.5222 42.9009 94.5713 41.5509 95.4706C37.9509 95.7703 34.0509 96.0701 33.3009 96.22C33.7509 96.22 36.9009 96.3698 40.2009 96.22C38.1009 97.419 36.0009 98.618 34.9509 99.0676C36.4509 98.618 39.3009 97.5688 42.0009 96.0701C44.8509 95.9202 47.4009 95.7703 48.4509 95.3207C48.1509 96.0701 45.7509 99.9669 43.6509 100.866C44.5509 100.716 47.5509 99.817 49.2009 95.4706C49.8009 95.7703 50.5509 95.9202 51.4509 95.9202C51.9009 96.6696 52.9509 98.4681 55.0509 98.4681C55.5009 99.6671 59.4009 105.962 64.8009 103.564C63.3009 102.665 62.2509 101.765 61.5009 99.3674C63.9009 99.2175 70.3509 102.665 72.1509 110.308C70.6509 109.859 68.7009 108.959 68.5509 108.21C68.1009 110.008 67.8009 112.257 71.7009 116.153C71.8509 117.053 71.7009 117.952 72.0009 119.001C72.6009 119.6 73.3509 120.2 74.1009 120.799C74.1009 121.849 73.9509 123.347 76.9509 124.247C78.0009 124.996 81.1509 125.895 81.6009 126.495C82.5009 126.794 84.0009 126.794 84.9009 126.794C84.9009 126.794 86.2509 126.495 86.7009 126.045C87.4509 126.045 88.3509 126.045 92.5509 121.549C93.4509 120.5 92.5509 114.804 92.7009 113.306C93.1509 112.257 93.3009 111.357 93.9009 110.158C93.9009 110.158 94.5009 108.959 95.5509 108.51C95.7009 108.51 95.7009 108.51 95.8509 108.51C98.2509 107.91 101.401 110.158 102.901 110.908C103.501 111.207 103.651 111.058 104.101 111.207C104.251 111.357 104.551 111.807 104.851 111.957C105.451 112.257 105.901 112.107 106.501 112.556C107.401 113.006 109.051 115.554 110.701 115.254C111.151 115.104 111.601 114.055 111.901 113.755C112.651 113.306 113.551 113.306 114.301 112.856C115.051 112.257 114.751 111.657 114.901 110.908C114.901 110.908 115.201 110.458 115.201 110.308C115.501 110.308 116.401 110.308 116.851 110.158L117.151 109.859C117.451 109.559 117.301 109.259 117.151 108.959C117.001 108.66 116.251 108.36 116.101 108.06C115.501 107.461 114.601 106.711 114.301 106.112C114.151 105.812 114.301 105.662 114.151 105.362C113.851 104.913 113.251 104.613 113.101 104.163C112.351 102.665 112.651 99.2175 112.351 98.618C112.051 98.1684 111.751 98.1683 111.451 97.7187C110.851 96.8195 111.601 93.6721 111.601 92.4731C111.601 91.424 110.701 92.1733 110.701 92.1733C109.951 94.1217 109.951 95.021 109.801 97.7187C109.801 98.0185 109.501 99.5172 109.501 99.6671C109.501 100.716 110.101 102.365 109.651 103.414C109.501 103.864 108.751 104.463 107.701 104.463C107.251 104.463 105.301 103.864 104.851 103.714C104.701 103.714 104.401 103.114 104.251 103.114C103.201 102.365 103.051 103.114 103.051 103.414C103.051 103.864 103.201 103.864 103.201 104.163C103.201 104.463 103.651 105.212 103.651 105.362C103.651 105.512 103.351 106.411 101.401 105.212C100.051 104.313 98.5509 102.065 98.5509 101.615C98.4009 100.716 98.7009 99.9668 98.8509 99.6671C99.6009 99.0676 100.351 99.9669 101.101 100.267C101.251 100.416 101.701 100.716 102.001 100.716C102.451 100.716 103.051 100.566 103.201 100.566C105.901 100.416 108.751 101.466 109.201 99.5172C109.501 98.3182 108.301 97.7187 108.151 97.2691C107.851 96.6696 108.001 96.6696 107.851 96.0701C107.851 96.0701 107.701 95.6205 107.551 95.6205C107.251 95.1708 107.401 94.7212 107.251 94.1217C106.951 93.5222 106.201 93.2225 105.751 92.623C105.301 92.0235 105.301 91.1242 104.701 90.6746C103.801 89.9252 100.051 88.8761 99.6009 87.9768C98.8509 86.628 99.7509 84.0801 99.4509 82.4315C99.3009 81.3823 99.0009 80.9327 98.2509 80.3332C97.9509 80.0335 97.9509 79.7337 97.9509 79.434C98.1009 78.8345 98.4009 78.9843 98.5509 77.6355C98.7009 76.8861 98.5509 75.9868 98.5509 75.2375C98.5509 75.0876 98.8509 73.8886 99.0009 73.7387C99.1509 71.7903 98.8509 69.5422 98.4009 68.1933C98.2509 67.444 97.5009 66.8445 97.3509 66.245C97.2009 65.6455 97.3509 65.3457 97.2009 64.7462C97.0509 64.2966 96.4509 63.847 96.1509 63.5472C95.7009 62.7978 95.8509 61.5988 95.1009 61.1492C94.5009 60.8494 94.3509 61.2991 94.3509 61.1492C94.2009 61.7487 94.2009 62.4981 94.5009 63.2475C94.6509 63.5472 95.2509 64.1467 95.4009 64.4465C95.5509 65.046 95.2509 65.9452 95.4009 66.5447L95.7009 67.2941C96.0009 69.0926 94.9509 71.4906 94.2009 72.5397C93.7509 73.1392 92.1009 74.0385 92.1009 75.0876C91.9509 75.6871 92.2509 75.6871 92.4009 75.9868C92.7009 76.2866 93.4509 76.7362 93.4509 77.036C93.6009 77.3357 93.6009 77.1858 93.7509 77.4856L93.9009 77.9352C94.0509 79.1342 92.4009 79.434 93.1509 80.9327C93.4509 81.3823 94.2009 81.3823 94.6509 81.6821C95.4009 82.1317 97.0509 83.6305 97.2009 84.9793C97.2009 85.5788 97.2009 88.4265 97.0509 88.7262C96.6009 89.4756 94.6509 89.7753 94.8009 91.424C95.1009 93.2225 99.6009 92.623 100.951 93.5222C101.551 93.9718 101.701 94.8711 101.851 95.7703C102.001 96.22 101.551 96.3698 101.251 96.5197C100.801 96.8195 100.351 96.5197 99.7509 96.6696C98.2509 96.9693 95.8509 97.5688 95.2509 98.7678C94.5009 100.117 95.4009 102.065 95.1009 103.564C94.8009 105.063 93.7509 106.711 92.8509 107.91C92.4009 108.66 91.8009 109.259 91.5009 110.308C90.9009 112.406 91.3509 114.954 91.2009 117.502C91.2009 117.502 91.3509 118.851 90.4509 119.75C89.4009 120.799 85.9509 124.097 83.5509 124.097C82.6509 124.097 82.2009 123.797 81.3009 123.048C80.7009 123.048 79.2009 122.598 78.4509 121.849C78.1509 121.399 75.4509 118.701 77.2509 117.802C78.9009 117.053 81.4509 118.701 82.6509 119.451C83.1009 119.451 86.5509 119.6 90.3009 114.804C90.1509 112.257 89.8509 108.959 89.7009 108.36C89.2509 107.161 87.1509 104.913 86.7009 103.564C86.4009 102.515 85.9509 100.416 86.2509 98.9177C86.1009 97.2691 85.0509 96.9693 84.6009 95.6205C84.4509 95.3207 84.3009 95.021 84.3009 94.8711C84.1509 94.4215 84.1509 93.9718 83.8509 93.5222C83.2509 92.4731 82.6509 92.3232 82.0509 91.424C81.4509 90.3748 81.6009 89.1758 80.5509 88.5763C80.1009 88.2766 79.3509 88.1267 78.7509 87.827C78.3009 87.5272 77.8509 86.9277 77.2509 86.7778C76.6509 86.4781 76.5009 86.4781 75.9009 86.1783C75.6009 86.0285 75.1509 85.8786 74.8509 85.7287C74.5509 85.5788 74.4009 85.7287 74.1009 85.5788C73.5009 85.429 73.9509 84.9793 73.6509 83.9302C73.6509 83.7803 73.3509 83.7803 73.3509 83.6305C73.0509 83.4806 72.6009 83.031 72.1509 83.3307C71.5509 83.7803 71.4009 83.6305 71.1009 84.3798C70.9509 84.9793 70.5009 86.4781 70.2009 86.9277C69.9009 87.3773 69.4509 87.827 69.0009 88.2766C68.4009 88.4265 67.9509 88.4265 67.9509 88.4265L66.6009 88.5763L66.0009 89.6255C66.0009 89.6255 65.2509 89.4756 64.9509 89.4756C64.8009 89.7753 63.9009 90.3748 63.6009 90.6746C62.4009 91.2741 61.8009 90.8245 61.6509 90.6746C61.6509 90.5247 61.2009 90.0751 61.9509 89.4756C64.6509 88.7262 67.8009 85.1292 68.1009 84.3798C67.8009 84.8295 62.2509 87.9768 61.2009 88.2766C62.2509 85.7287 69.0009 81.9818 69.4509 81.5322C67.8009 81.832 61.9509 85.2791 61.0509 86.7778C60.1509 88.2766 58.9509 87.827 57.9009 87.827C56.8509 87.827 57.0009 88.8761 56.8509 89.6255C56.8509 90.225 56.4009 91.5738 56.7009 91.8736C57.4509 92.4731 59.2509 90.0751 59.8509 91.2741C60.1509 92.7728 56.4009 92.623 56.4009 93.822C56.2509 94.4215 59.8509 94.7212 60.6009 95.3207C59.4009 96.22 56.5509 96.5197 55.6509 96.5197C55.0509 96.5197 54.6009 96.5197 54.3009 96.5197C53.8509 96.3698 53.2509 96.0701 52.6509 95.021C51.6009 93.0726 53.4009 91.7237 53.4009 91.2741C53.4009 90.8245 53.2509 90.9743 53.1009 90.225C53.1009 89.4756 54.0009 89.3257 54.1509 89.1758C54.4509 89.026 54.1509 88.7262 54.1509 87.9768C54.6009 86.1783 57.4509 84.23 56.7009 83.6305C56.1009 83.3307 54.6009 84.8295 54.1509 85.5788C52.2009 88.1267 49.9509 87.3773 49.0509 87.3773C47.2509 87.5272 47.5509 85.5788 48.9009 85.7287C50.2509 85.429 50.2509 83.4806 51.1509 83.6305C51.4509 84.9793 49.9509 85.2791 50.7009 85.5788C51.7509 86.0285 51.7509 84.6796 52.0509 84.0801C52.3509 83.4806 53.7009 82.2816 53.5509 81.9818C53.1009 81.832 52.0509 82.5813 51.6009 82.8811C50.4009 80.0335 53.4009 77.7853 53.5509 77.036C54.4509 75.5372 59.8509 73.5888 59.8509 71.3407L60.0009 71.1908C60.0009 71.1908 60.1509 71.1908 60.3009 71.3407C60.3009 71.4906 60.3009 71.6405 60.4509 71.7903C60.4509 71.9402 60.4509 72.0901 60.4509 72.0901V71.9402C60.4509 72.24 60.4509 72.5397 60.4509 72.5397V72.8395C60.4509 72.9893 60.7509 73.1392 60.7509 73.1392C60.9009 73.1392 61.2009 72.9893 61.3509 72.6896C61.3509 72.6896 61.6509 72.3898 61.6509 72.24C62.1009 71.9402 62.2509 71.7903 62.5509 71.3407C63.4509 69.9918 61.6509 68.0435 62.2509 66.245C62.5509 65.046 63.7509 63.6971 63.7509 63.6971C64.0509 62.9477 63.6009 63.0976 63.6009 63.0976C62.8509 62.9477 62.4009 63.6971 62.5509 63.5472C61.6509 64.4465 61.3509 64.7462 60.7509 65.9452C60.7509 65.9452 60.1509 66.3948 60.0009 65.7953C59.7009 64.7462 60.9009 62.4981 61.3509 62.1983C62.1009 61.7487 62.8509 61.4489 63.7509 61.1492C64.2009 60.9993 64.9509 60.2499 65.4009 60.1001C65.7009 59.9502 65.8509 59.9502 66.1509 60.1001C66.1509 60.1001 66.4509 60.3998 66.3009 61.1492C66.3009 61.1492 66.0009 62.1983 66.0009 62.4981C66.1509 62.7978 66.0009 62.9477 66.6009 62.9477C67.9509 62.9477 70.8009 62.648 71.7009 62.1983C71.8509 62.0485 72.1509 61.8986 72.3009 61.5988C72.6009 61.2991 72.4509 60.8494 72.3009 60.8494L71.7009 60.6996C72.1509 60.6996 69.3009 60.5497 69.7509 60.5497C69.3009 60.6996 70.5009 59.2008 70.3509 58.6013C70.3509 58.3016 69.7509 58.1517 69.6009 57.8519C69.6009 57.7021 69.3009 57.4023 69.6009 57.2524L70.0509 57.1026C70.2009 56.9527 70.3509 56.8028 70.5009 56.8028C71.4009 56.3532 73.0509 56.653 73.8009 56.8028C73.9509 56.8028 75.0009 57.1026 75.4509 58.3016C75.6009 58.6013 75.6009 58.9011 75.7509 59.2008C76.3509 59.9502 77.8509 60.2499 78.7509 59.3507C78.9009 59.2008 79.2009 58.7512 79.3509 58.4515C80.2509 56.3532 78.9009 54.8544 77.1009 54.2549C76.3509 53.9552 75.3009 53.9552 74.4009 53.6554C73.8009 53.5056 74.1009 52.9061 74.4009 52.7562L74.7009 52.4564C75.0009 52.0068 76.0509 51.5572 76.5009 51.4073C77.4009 51.1076 78.4509 50.6579 79.8009 51.2574C79.9509 51.2574 80.5509 51.7071 80.7009 51.8569C81.7509 52.1567 82.0509 52.1567 83.1009 51.7071C83.5509 51.5572 83.4009 51.4073 83.4009 51.4073C83.7009 50.5081 83.1009 49.7587 83.1009 49.9086C82.9509 48.5597 86.5509 50.2083 87.1509 49.4589C87.7509 48.7096 87.3009 47.3607 88.0509 46.7612C88.2009 46.7612 88.5009 46.4614 88.6509 46.4614C89.4009 46.3116 90.0009 46.6113 90.4509 46.7612L91.0509 47.0609C92.2509 47.5106 93.3009 47.8103 93.9009 48.7096C94.3509 49.3091 94.2009 50.2083 94.6509 50.9577C94.8009 51.2574 95.2509 51.4073 95.4009 51.7071C95.5509 51.8569 95.8509 52.0068 96.1509 52.1567C96.4509 52.3066 96.6009 52.4564 97.0509 52.6063C97.3509 52.7562 97.8009 53.2058 98.1009 53.3557C99.4509 53.9552 100.801 53.9552 102.001 53.9552C102.751 53.9552 103.201 54.4048 103.801 54.1051C104.101 53.9552 104.101 53.3557 103.801 53.0559C103.351 52.4564 103.051 52.6063 102.301 52.1567C102.001 52.0068 101.701 51.4073 101.401 51.2574C100.651 50.6579 99.4509 50.6579 98.8509 49.7587C98.8509 49.6088 98.7009 49.3091 98.7009 49.1592L98.5509 48.7096C97.5009 46.6113 97.2009 45.4123 98.2509 45.1126C98.8509 44.8128 100.201 44.9627 100.801 44.8128C100.951 44.6629 101.251 44.3632 101.401 44.2133C102.901 43.4639 105.601 42.7146 106.951 43.4639C107.401 43.6138 106.951 44.8128 107.101 45.2624C107.251 45.4123 107.551 45.8619 107.851 45.8619C111.001 46.7612 114.001 46.6113 116.401 47.6604C117.751 48.2599 118.801 49.3091 120.001 50.3582C121.051 51.2574 119.851 52.3066 120.901 52.6063C120.151 52.7562 119.551 52.7562 119.401 52.4564C119.401 52.3066 119.101 52.0068 119.101 51.8569C118.351 51.1076 117.301 49.9086 116.251 49.4589C115.651 49.3091 115.351 49.4589 114.751 49.3091L113.851 49.4589C113.101 49.3091 112.951 49.3091 112.201 49.1592C111.901 49.1592 111.151 48.7096 110.701 48.7096C109.201 48.4098 108.301 49.1592 106.951 48.7096C106.351 48.5597 105.451 47.5106 105.001 47.2108C104.401 46.9111 103.801 46.7612 103.051 46.4614C102.751 46.3116 102.601 46.3116 102.451 46.4614C102.001 46.7612 102.151 47.0609 102.451 47.3607C102.601 47.5106 102.601 47.8103 102.751 47.8103C103.201 48.1101 104.251 48.1101 104.551 48.7096C105.301 50.3582 104.251 50.8078 103.951 51.2574C103.801 51.5572 103.651 51.7071 103.951 52.1567C104.101 52.3066 104.551 52.6063 104.701 52.7562C105.451 53.0559 106.051 52.9061 106.651 53.3557C107.101 53.6554 107.701 54.5547 108.301 54.5547C109.801 54.8545 110.101 53.8053 110.851 53.6554C111.901 53.3557 112.501 53.9552 113.701 53.6554C114.151 53.5056 114.301 53.0559 114.601 52.9061C115.351 52.6063 115.951 52.4564 116.401 52.7562C116.401 52.7562 116.851 53.0559 116.251 53.3557C115.951 53.5056 115.501 53.5056 115.201 53.8053C114.901 53.9552 114.751 54.2549 114.601 54.4048C114.451 54.7046 114.451 55.0043 114.451 55.0043C114.601 55.1542 114.751 55.3041 114.751 55.3041C115.951 55.7537 117.301 54.8544 118.351 54.7046C119.101 54.5547 121.351 54.7046 122.101 55.1542C122.101 55.1542 122.701 55.3041 122.251 56.3532C121.951 56.9527 121.051 57.4023 120.601 58.0018C120.301 58.3016 120.151 58.9011 119.851 59.2008C119.401 59.6504 119.401 59.6504 118.951 60.1001L118.651 60.5497C118.501 60.9993 116.701 62.6479 116.251 63.0976C116.101 63.3973 115.951 63.6971 115.651 63.9968C115.351 64.4465 115.051 64.5963 114.901 64.8961C114.301 65.6455 113.401 67.1442 112.501 67.5938C112.051 67.7437 111.601 67.5938 111.001 67.444C110.701 67.2941 110.251 66.6946 109.951 66.5447C108.751 65.9452 107.251 66.0951 106.201 65.4956C105.601 65.1958 105.151 64.1467 104.701 63.6971C104.401 63.3973 104.251 62.7978 103.801 62.648C103.201 62.4981 101.551 62.648 101.251 63.2475C100.651 64.4465 102.151 67.2941 102.301 68.4931C102.451 69.5422 101.851 69.9918 102.301 70.8911C102.451 71.3407 103.201 71.4906 103.351 71.7903C104.401 73.2891 103.501 75.5372 103.651 77.6355C103.801 78.235 104.101 79.1342 103.951 80.0335C103.801 81.5322 102.001 82.7312 102.751 84.8295C102.751 84.9793 103.201 85.1292 103.201 85.1292C103.501 85.2791 103.951 85.2791 104.251 85.1292C104.851 84.9793 105.451 83.7803 106.051 83.3307C106.051 83.1808 106.351 83.1808 106.501 83.1808C106.501 83.031 106.801 83.031 106.801 83.031C107.101 82.8811 107.101 82.8811 107.401 82.4315C107.701 81.832 107.551 81.2325 107.701 80.4831C107.851 79.7337 108.601 78.5347 108.601 77.7853C108.751 75.5372 107.251 71.1908 108.301 70.5913C108.751 70.2916 109.201 69.842 109.951 69.6921C110.251 69.5422 111.451 69.9918 111.901 69.9918C111.301 71.3407 113.551 74.9377 113.251 77.036C112.801 81.832 109.651 84.5297 106.951 87.2275C106.651 87.5272 106.951 87.827 107.101 88.1267C107.701 88.5763 108.901 88.4265 109.651 88.2766C110.701 88.1267 111.151 87.6771 111.751 87.3773C112.051 87.2275 112.351 87.3773 112.651 87.3773C113.401 87.2275 114.001 86.1783 114.451 85.5788C114.451 85.5788 115.351 84.6796 115.501 85.8786C115.501 87.0776 115.351 88.2766 115.501 89.4756C115.651 90.8245 118.201 94.8711 119.551 95.021C122.551 95.4706 119.401 91.7237 119.401 91.424C118.951 90.225 118.501 88.2766 118.501 86.7778C118.501 86.1783 118.951 85.1292 119.101 84.5297C119.101 84.23 118.951 83.6305 119.101 83.4806C119.401 83.031 120.901 82.8811 121.351 82.2816C121.501 82.1317 121.351 81.832 121.351 81.5322C121.351 81.0826 121.801 80.3332 122.101 79.8836C122.251 79.5838 122.551 79.434 123.001 79.8836C123.301 80.1833 123.451 81.0826 123.901 81.6821L124.351 82.1317C124.951 82.4315 125.701 81.9818 125.551 82.1317C126.151 81.9818 126.001 81.3823 126.301 81.2325L126.601 81.0826C127.951 79.7337 124.951 78.5347 124.951 77.3357C124.951 75.9868 125.251 74.3382 124.801 72.8395C124.651 72.3898 124.051 71.9402 123.901 71.6405C124.051 70.4415 124.501 69.5422 124.501 68.9427C124.651 67.7437 124.351 65.9452 124.651 65.4956C124.801 65.1958 125.251 65.046 125.851 65.1958C126.301 65.3457 126.601 66.0951 126.901 66.245C128.101 67.1442 129.451 67.7437 131.401 67.444C131.701 67.444 131.851 66.9943 131.851 66.9943C132.001 66.6946 132.001 66.245 131.701 65.7953C130.951 64.8961 128.251 64.1467 128.101 63.6971C127.951 63.3973 127.501 62.7978 128.101 62.648C127.801 62.7978 129.751 62.648 130.501 62.4981C131.401 62.3482 131.551 61.449 132.151 60.9993C133.051 60.5497 134.401 60.9993 134.851 60.1001C135.151 59.5006 134.851 58.7512 135.151 58.3016C135.451 57.7021 136.651 57.5522 137.101 57.1026C137.251 56.9527 137.251 56.3532 137.101 56.2033C136.951 55.3041 134.551 55.4539 133.501 54.2549C133.201 53.8053 133.351 53.5056 133.501 53.2058C133.801 52.1567 135.901 52.7562 136.501 51.8569C136.651 51.4073 136.801 50.3582 136.651 50.2083C135.301 48.5597 132.301 49.3091 130.351 48.5597C129.301 48.1101 128.101 47.3607 127.051 46.9111C125.701 46.4614 124.801 46.3116 123.451 45.8619C123.151 45.7121 122.551 45.2624 122.251 45.1126C120.751 44.5131 119.701 44.3632 118.201 43.7637C118.051 43.7637 117.601 43.4639 117.451 43.3141C116.851 43.0143 116.701 43.0143 116.101 42.8644C113.851 42.1151 111.001 41.3657 107.851 41.5156C106.501 41.6654 104.851 41.3657 102.601 41.9652C101.851 42.1151 100.801 42.8644 100.051 43.0143C99.6009 43.1642 99.1509 43.3141 98.7009 43.4639C98.1009 43.7637 97.5009 44.0634 96.6009 44.2133C94.0509 44.8128 90.7509 44.2133 88.3509 44.5131C86.1009 44.8128 84.9009 46.1617 83.1009 46.9111C82.5009 47.0609 82.3509 47.0609 81.7509 47.2108C81.4509 47.3607 80.7009 47.5106 80.4009 47.6604C79.6509 48.1101 79.2009 48.1101 78.3009 48.5597C77.8509 48.7096 77.4009 49.1592 76.9509 49.3091C76.3509 49.6088 76.3509 49.7587 75.7509 50.0584L75.3009 50.3582C75.3009 50.3582 74.4009 51.1076 74.2509 51.2574C73.9509 51.5572 73.5009 52.1567 73.2009 52.4564C72.3009 53.5056 70.9509 54.8544 69.7509 55.7537C69.3009 56.0534 69.0009 56.0534 68.7009 56.3532C68.2509 56.6529 67.9509 57.1026 67.5009 57.4023C66.6009 58.1517 65.5509 58.6013 64.5009 59.051V59.3507C63.6009 59.9502 63.6009 60.1001 62.7009 60.6996C62.1009 61.1492 61.8009 61.7487 61.3509 62.1983C61.0509 62.4981 60.6009 63.3973 60.3009 63.6971C59.1009 65.3457 58.8009 67.7437 57.9009 69.842C57.6009 70.4415 55.6509 73.2891 55.2009 73.439L54.9009 73.7387C54.6009 74.0385 54.6009 74.0385 54.3009 74.3382C53.7009 74.7878 53.1009 75.0876 52.6509 75.837C52.3509 76.2866 52.0509 76.8861 51.7509 77.4856C51.3009 78.3848 50.4009 79.2841 49.9509 80.1833C49.8009 80.4831 49.6509 80.9327 49.5009 81.2325L49.3509 81.3823C49.0509 81.6821 48.7509 82.8811 48.7509 82.8811C48.3009 83.7803 47.4009 84.3798 46.2009 86.1783C44.7009 86.3282 39.6009 84.9793 36.1509 83.3307C36.9009 84.23 40.8009 86.7778 45.3009 87.2275C45.0009 87.6771 45.0009 88.1267 44.4009 88.2766C42.6009 88.7262 39.4509 87.6771 35.2509 86.1783C35.5509 86.7778 39.3009 89.026 44.7009 89.3257C43.9509 90.3748 36.4509 90.0751 30.4509 88.4265ZM64.8009 98.3182C64.5009 97.8686 64.8009 97.1192 65.4009 96.8195C66.6009 96.22 67.0509 96.9693 67.3509 97.2691C68.5509 99.0676 70.0509 101.466 71.1009 102.365C70.2009 102.515 66.3009 101.316 64.8009 98.3182ZM74.7009 116.603C74.1009 116.603 70.0509 113.156 70.6509 111.058C71.8509 111.957 74.5509 113.755 74.8509 113.755C75.3009 114.055 75.6009 116.303 74.7009 116.603ZM79.5009 116.603C78.9009 116.153 75.0009 111.957 76.0509 110.158C77.1009 111.207 80.1009 113.905 81.1509 114.205C81.4509 114.954 81.3009 117.202 79.5009 116.603ZM79.8009 100.866C80.5509 101.915 81.4509 102.515 81.3009 104.763C81.3009 105.362 81.4509 105.362 81.9009 105.362C82.3509 105.212 82.0509 102.665 83.2509 102.814C84.3009 102.964 83.5509 104.463 84.1509 106.112C84.3009 106.711 85.5009 108.809 85.2009 112.406C85.2009 113.306 83.4009 114.505 82.3509 113.905C81.6009 113.456 81.6009 112.856 81.0009 108.959C80.8509 106.711 78.0009 105.962 76.9509 104.913C75.7509 104.013 76.5009 103.714 76.2009 102.065C75.6009 99.817 72.9009 98.7678 73.8009 97.2691C74.1009 96.9693 74.4009 96.5197 75.1509 96.8195C75.4509 97.8686 78.1509 98.7679 79.8009 100.866ZM61.2009 93.822C61.5009 93.6721 62.7009 93.2225 63.0009 93.0726C64.2009 92.623 64.9509 93.3723 66.0009 92.623C66.3009 92.4731 66.6009 92.0235 66.7509 91.8736C66.9009 91.7237 67.3509 91.7237 67.6509 91.5738C68.2509 91.1242 69.4509 89.7753 70.2009 89.6255C70.6509 89.4756 70.6509 89.6255 70.9509 89.6255C70.9509 89.6255 71.2509 89.4756 71.2509 90.225C71.1009 91.5738 74.2509 90.225 76.2009 90.6746C77.5509 90.9743 78.9009 91.424 78.6009 92.3232C78.6009 92.1733 78.1509 92.623 78.1509 92.623C77.2509 93.3723 76.5009 92.623 75.9009 92.4731C75.0009 92.3232 74.4009 92.623 73.6509 92.4731L72.6009 92.1733C72.0009 92.1733 70.9509 92.4731 70.5009 92.4731C69.6009 92.4731 69.1509 92.1733 68.2509 92.3232C67.8009 92.3232 67.2009 92.9227 66.9009 93.0726C66.6009 93.2225 66.3009 93.2225 66.0009 93.3723C65.8509 93.3723 65.4009 93.6721 65.1009 93.822C64.2009 94.2716 63.7509 94.2716 62.7009 94.5713L62.1009 94.7212C60.7509 94.8711 60.7509 93.9718 61.2009 93.822ZM58.0509 98.9177C59.4009 98.618 59.8509 98.9177 60.6009 100.566C61.0509 101.466 62.1009 102.814 62.5509 103.414C60.9009 103.564 58.3509 101.316 57.6009 100.117C57.0009 99.5172 57.7509 99.0676 58.0509 98.9177ZM46.5009 93.6721C46.9509 94.1217 47.4009 94.5713 47.8509 95.021C47.4009 95.1708 45.7509 95.3207 43.8009 95.6205C44.7009 94.8711 45.7509 94.2716 46.5009 93.6721ZM44.8509 90.6746C45.0009 91.1242 45.1509 91.7237 45.4509 92.1733C45.4509 92.3232 45.6009 92.3232 45.6009 92.4731C44.4009 92.4731 42.1509 92.3232 39.9009 92.1733C41.7009 91.7237 43.3509 91.1242 44.1009 90.6746C44.4009 90.6746 44.5509 90.6746 44.8509 90.6746Z" fill="#8B0029"/>
<path d="M12.0016 65.3455C12.1516 65.0458 13.6516 60.3996 13.6516 60.3996L11.5516 59.6503C11.5516 59.6503 10.0516 64.2964 9.90156 64.5961C9.60156 64.4463 6.15156 63.3971 5.85156 63.2473C6.15156 62.1981 7.95156 57.1024 7.95156 57.1024V56.9525L5.85156 56.2031L2.85156 65.1956H3.00156L18.4516 70.4413L21.7516 60.3996L19.5016 59.6503C19.5016 59.6503 17.1016 66.6944 17.1016 66.9941C16.9516 66.9941 12.3016 65.3455 12.0016 65.3455Z" fill="#8B0029"/>
<path d="M175.801 116.453L176.551 113.905L162.751 102.665L162.001 105.063C162.001 105.063 166.951 108.809 167.251 108.959C167.251 109.109 165.601 114.355 165.451 114.655C165.151 114.655 159.001 115.104 159.001 115.104L158.101 118.102L175.801 116.453ZM167.701 114.505C167.851 114.055 168.901 110.908 168.901 110.458C169.201 110.758 172.801 113.605 173.401 114.055C172.801 114.205 168.151 114.505 167.701 114.505Z" fill="#8B0029"/>
<path d="M90.751 163.514L91.201 180L94.051 179.85L93.601 163.364H93.451L90.751 163.514Z" fill="#8B0029"/>
<path d="M174.451 57.1025L158.851 62.6479L159.901 65.3457L175.351 59.8003V59.6504L174.451 57.1025Z" fill="#8B0029"/>
<path d="M180.001 92.6229L163.501 91.7237L163.351 94.5713L179.851 95.4706V95.3207L180.001 92.6229Z" fill="#8B0029"/>
<path d="M1.65117 105.512L18.0012 102.814L17.5512 99.9667L1.20117 102.664V102.814L1.65117 105.512Z" fill="#8B0029"/>
<path d="M150.751 145.229L148.351 145.978L146.401 146.578C144.901 147.027 143.851 146.878 143.251 146.278C142.801 145.828 142.651 145.229 142.801 144.48C142.951 143.88 143.401 143.281 144.001 142.681C145.051 141.782 146.401 141.032 147.451 140.883H147.751L145.801 138.784H145.651C144.601 139.384 143.551 139.983 142.501 140.883C141.301 142.082 140.401 143.281 140.101 144.629C139.651 146.128 139.951 147.477 141.001 148.526C142.051 149.575 143.551 150.025 145.201 149.725L146.101 149.425L149.551 148.376C151.051 147.927 152.101 148.077 152.851 148.826C153.301 149.425 153.451 150.025 153.301 150.924C153.151 151.674 152.701 152.273 152.101 152.873C150.751 154.072 149.251 154.821 147.601 155.271L147.301 155.42L149.101 157.369L149.701 157.069C151.051 156.47 152.251 155.72 153.451 154.521C154.951 153.172 155.851 151.524 156.001 150.025C156.151 148.526 155.701 147.177 154.651 146.128C153.901 145.229 152.551 144.929 150.751 145.229Z" fill="#8B0029"/>
<path d="M150.601 33.1223L149.701 30.8742L148.951 28.9258C148.351 27.4271 148.501 26.378 148.951 25.7785C149.401 25.3288 150.001 25.0291 150.751 25.3288C151.351 25.4787 151.951 25.7785 152.551 26.378C153.601 27.4271 154.351 28.6261 154.501 29.6752V29.975L156.451 27.8767V27.7268C155.851 26.6777 155.101 25.6286 154.051 24.8792C152.851 23.6802 151.501 22.9308 150.151 22.781C148.651 22.4812 147.301 22.781 146.401 23.98C145.351 25.179 145.051 26.5278 145.501 28.3263L145.801 29.2256L147.151 32.6727C147.751 34.1715 147.601 35.2206 147.001 35.97C146.551 36.5695 145.801 36.7193 145.051 36.5695C144.301 36.4196 143.551 36.1199 142.951 35.5204C141.601 34.3214 140.701 32.8226 140.251 31.174L140.101 30.8742L138.301 32.8226L138.601 33.4221C139.201 34.6211 140.251 35.8201 141.451 37.0191C142.951 38.368 144.601 39.1174 146.101 39.2672C147.601 39.4171 148.951 38.8176 149.851 37.6186C150.901 36.2697 151.051 34.9208 150.601 33.1223Z" fill="#8B0029"/>
<path d="M79.8007 175.654C79.8007 175.654 77.7007 171.757 77.1007 170.858C77.7007 170.708 78.7507 170.408 79.6507 169.809C80.5507 169.059 81.1507 168.16 81.4507 167.111C81.6007 165.912 81.4507 164.863 80.5507 163.963C79.8007 163.064 78.6007 162.465 76.9507 162.165L71.7007 161.266H71.5507L68.7007 177.452L71.5507 177.902V177.602C71.5507 177.003 71.7007 176.253 72.0007 174.305C72.0007 174.305 73.8007 163.963 73.9507 163.664C76.6507 164.113 77.5507 164.563 78.0007 165.012C78.4507 165.462 78.6007 166.062 78.4507 166.961C78.1507 168.759 76.6507 169.659 73.8007 169.509H73.5007L77.8507 177.902C78.3007 178.801 79.3507 179.401 80.5507 179.7L82.8007 180.15L82.3507 179.7C81.6007 178.651 80.5507 177.152 79.8007 175.654Z" fill="#8B0029"/>
<path d="M8.70098 79.1342C8.10098 79.7337 7.50098 80.483 7.20098 81.5322C6.45098 80.0334 5.55098 79.284 4.20098 79.284C3.00098 79.284 2.10098 79.7337 1.35098 80.6329C0.600976 81.5322 0.300977 82.881 0.150977 84.3798L0.000976562 89.1758L16.501 89.9252L16.651 86.7778C16.651 85.4289 16.801 84.5297 16.651 83.9302C16.651 82.881 16.351 81.9818 16.051 81.0825C15.601 80.1833 15.151 79.4339 14.251 78.8344C13.501 78.2349 12.601 77.9352 11.701 77.7853C10.651 77.9352 9.60098 78.2349 8.70098 79.1342ZM2.10098 86.478L2.25098 85.1292C2.25098 84.2299 2.40098 83.4805 2.85098 83.0309C3.15098 82.5813 3.75098 82.2815 4.50098 82.4314C5.10098 82.4314 5.85098 82.5813 6.30098 83.4805C6.60098 84.08 6.60098 85.1292 6.60098 86.0284V86.6279C6.45098 86.6279 2.25098 86.478 2.10098 86.478ZM13.951 82.2815C14.401 83.0309 14.551 83.7803 14.401 84.9793C14.401 84.9793 14.251 86.7778 14.251 86.9277C14.101 86.9277 8.55098 86.6279 8.55098 86.6279V85.1292C8.55098 83.9302 8.85098 82.881 9.30098 82.1317C9.90098 81.2324 10.801 80.9327 11.701 80.9327C12.751 81.0825 13.501 81.682 13.951 82.2815Z" fill="#8B0029"/>
<path d="M101.101 162.764V162.914L101.551 164.863C101.551 164.863 105.751 163.963 106.051 163.814C106.201 164.113 109.201 177.752 109.201 177.752L112.051 177.152C112.051 177.152 109.051 163.514 108.901 163.214C109.201 163.214 113.551 162.165 113.551 162.165L113.101 160.067L101.101 162.764Z" fill="#8B0029"/>
<path d="M163.801 36.8694L163.651 37.0193L162.001 38.0684C162.001 38.0684 164.251 41.6654 164.401 41.9652C164.101 42.1151 152.101 49.3091 152.101 49.3091L153.601 51.7071C153.601 51.7071 165.601 44.5131 165.901 44.3632C166.051 44.663 168.301 48.4098 168.301 48.4098L170.101 47.3607L163.801 36.8694Z" fill="#8B0029"/>
<path d="M178.501 70.2914H178.351L176.401 70.5911C176.401 70.5911 176.851 74.7876 177.001 75.0874C176.701 75.0874 162.751 76.736 162.751 76.736L163.051 79.5836C163.051 79.5836 177.001 77.935 177.301 77.935C177.301 78.2347 177.901 82.5811 177.901 82.5811L180.001 82.2814L178.501 70.2914Z" fill="#8B0029"/>
<path d="M24.001 27.577L25.501 29.0757C25.501 29.0757 28.501 26.0782 28.801 25.9283C29.101 26.2281 38.851 36.2697 38.851 36.2697L40.951 34.3213C40.951 34.3213 31.201 24.2797 30.901 23.98C31.201 23.6802 34.351 20.6827 34.351 20.6827L32.851 19.184L24.001 27.577Z" fill="#8B0029"/>
<path d="M8.10127 126.195L23.5513 120.2L19.6513 110.308L17.5513 111.207L20.4013 118.401L7.05127 123.647L8.10127 126.195Z" fill="#8B0029"/>
<path d="M46.2011 149.425C46.2011 149.425 35.1011 155.87 34.2011 156.32C34.5011 155.42 39.0011 143.43 39.0011 143.43L36.4511 141.332L30.6011 157.968L32.5511 159.617L48.0011 150.924L47.8511 150.774L46.2011 149.425Z" fill="#8B0029"/>
<path d="M28.2012 42.4148C28.2012 42.4148 23.8512 42.8644 22.8012 42.8644C22.9512 42.2649 23.1012 41.2158 22.8012 40.1667C22.5012 38.9677 21.9012 38.0684 21.0012 37.4689C19.9512 36.8694 18.9012 36.5697 17.8512 37.0193C16.6512 37.319 15.6012 38.2183 14.7012 39.5672L11.8512 43.9135L11.7012 44.0634L25.5012 53.0559L27.1512 50.6579L27.0012 50.508C26.5512 50.2083 25.8012 49.9085 24.1512 48.7095C24.1512 48.7095 15.4512 43.0143 15.1512 42.7145C16.6512 40.4664 17.5512 39.717 18.0012 39.5672C18.6012 39.2674 19.2012 39.4173 19.9512 39.8669C21.4512 40.916 21.6012 42.5647 20.5512 45.1125L20.4012 45.4123L29.8512 44.6629C30.9012 44.513 31.8012 43.9135 32.5512 42.8644L33.9012 40.916L33.0012 41.3657C31.6512 41.8153 29.8512 42.2649 28.2012 42.4148Z" fill="#8B0029"/>
<path d="M78.0007 8.09333L75.6007 7.34395L73.5007 6.89432C72.0007 6.4447 71.2507 5.69532 71.1007 4.94595C70.9507 4.19657 71.2507 3.74695 71.8507 3.29732C72.3007 2.8477 72.9007 2.69782 73.8007 2.54795C75.1507 2.39807 76.8007 2.54795 77.5507 2.99757H77.8507L77.4007 0.149943H77.2507C76.0507 6.78338e-05 74.8507 6.78338e-05 73.5007 0.149943C71.8507 0.449693 70.5007 1.04919 69.4507 1.94844C68.2507 2.99757 67.8007 4.19657 68.1007 5.69532C68.4007 7.19408 69.3007 8.39308 70.9507 8.99258L71.8507 9.29233L75.3007 10.3415C76.8007 10.7911 77.7007 11.5405 77.8507 12.4397C78.0007 13.1891 77.7007 13.7886 77.1007 14.3881C76.5007 14.8377 75.7507 15.2873 75.0007 15.4372C73.2007 15.737 71.5507 15.5871 69.9007 14.9876L69.6007 14.8377L70.0507 17.5355L70.6507 17.6853C72.0007 17.9851 73.5007 17.9851 75.1507 17.6853C77.1007 17.3856 78.7507 16.4863 79.8007 15.2873C80.8507 14.0883 81.1507 12.7395 80.8507 11.2407C80.5507 9.74195 79.6507 8.8427 78.0007 8.09333Z" fill="#8B0029"/>
<path d="M49.8009 8.39313L47.4009 9.59213L48.9009 27.4273L51.1509 26.2283C51.1509 26.2283 50.4009 19.9335 50.4009 19.7836C50.5509 19.6338 55.5009 17.2358 55.6509 17.0859C55.8009 17.2358 60.4509 21.4323 60.4509 21.4323L63.3009 20.0834L49.8009 8.39313ZM53.8509 15.4373C53.4009 15.5871 50.5509 17.0859 50.1009 17.3856C50.1009 16.936 49.6509 12.2899 49.5009 11.5405C50.1009 12.14 53.5509 15.1375 53.8509 15.4373Z" fill="#8B0029"/>
<path d="M139.501 13.339L137.701 12.4397L132.751 21.2823C131.251 23.9801 129.901 25.0292 126.601 23.2307C124.501 22.0317 124.051 20.0833 125.551 17.3856L130.501 8.54297L127.951 7.19409L123.001 16.0367C122.401 17.0858 122.101 17.8352 121.951 18.4347C121.651 19.334 121.651 20.2332 121.801 21.1325C122.251 22.6312 123.301 23.9801 124.951 24.8794L126.151 25.4789C127.801 26.3781 129.451 26.6779 130.951 26.0784C131.851 25.7786 132.451 25.329 133.051 24.5796C133.351 24.13 133.801 23.5305 134.401 22.3315L139.351 13.4888L139.501 13.339Z" fill="#8B0029"/>
<path d="M53.2515 163.364C53.5515 163.514 58.0515 165.612 58.0515 165.612L58.9515 163.664C58.9515 163.664 54.4515 161.565 54.1515 161.416C54.3015 161.116 55.8015 157.819 55.9515 157.519C57.0015 157.968 61.8015 160.217 61.8015 160.366L61.9515 160.516L62.8515 158.568L54.1515 154.521V154.671L47.2515 169.359L56.8515 173.855L57.9015 171.757C57.9015 171.757 51.1515 168.61 50.8515 168.46C51.0015 168.16 53.1015 163.664 53.2515 163.364Z" fill="#8B0029"/>
<path d="M126.901 153.772L124.651 154.971L126.601 172.656L128.851 171.457C128.851 171.457 127.951 165.312 127.951 165.013C128.101 164.863 132.901 162.315 133.201 162.165C133.351 162.315 138.151 166.511 138.151 166.511L140.851 165.013L126.901 153.772ZM131.251 160.816C130.801 160.966 127.951 162.615 127.501 162.764C127.501 162.315 126.901 157.819 126.751 157.069C127.351 157.519 130.801 160.516 131.251 160.816Z" fill="#8B0029"/>
<path d="M115.801 2.09831L113.101 1.34894L109.801 12.2898C109.501 13.1891 109.351 13.7886 109.051 14.0883C108.601 14.6878 108.001 14.9876 106.951 14.6878C106.201 14.5379 105.001 13.7886 105.001 13.7886L104.401 15.8868C105.451 16.6362 106.501 16.9359 106.951 17.0858C108.301 17.3856 109.801 17.2357 111.001 16.1866C111.451 15.7369 112.051 14.9876 112.501 13.3389L115.801 2.09831Z" fill="#8B0029"/>
</g>
<defs>
<clipPath id="clip0_3574_53728">
<rect width="180" height="180" fill="white"/>
</clipPath>
</defs>
</svg>
