<svg width="35" height="35" viewBox="0 0 35 35" fill="none" xmlns="http://www.w3.org/2000/svg">
<path d="M12.0312 21.875C15.9576 21.875 19.1406 18.692 19.1406 14.7656C19.1406 10.8392 15.9576 7.65625 12.0312 7.65625C8.10485 7.65625 4.92188 10.8392 4.92188 14.7656C4.92188 18.692 8.10485 21.875 12.0312 21.875Z" stroke="black" stroke-width="2.39804" stroke-linecap="round" stroke-linejoin="round"/>
<path d="M21.248 7.9213C22.2259 7.64579 23.2514 7.58303 24.2556 7.73724C25.2597 7.89145 26.2191 8.25905 27.0692 8.81528C27.9193 9.37151 28.6404 10.1035 29.1838 10.9618C29.7272 11.8202 30.0804 12.785 30.2195 13.7914C30.3586 14.7977 30.2804 15.8222 29.9903 16.7958C29.7001 17.7694 29.2047 18.6695 28.5374 19.4355C27.8701 20.2015 27.0464 20.8156 26.1217 21.2364C25.1971 21.6573 24.193 21.8751 23.1771 21.8752" stroke="black" stroke-width="2.39804" stroke-linecap="round" stroke-linejoin="round"/>
<path d="M2.18652 26.9878C3.29686 25.4085 4.77091 24.1194 6.48421 23.2295C8.19751 22.3397 10.0998 21.8751 12.0304 21.875C13.961 21.8749 15.8633 22.3394 17.5767 23.2291C19.29 24.1189 20.7642 25.4078 21.8746 26.9871" stroke="black" stroke-width="2.39804" stroke-linecap="round" stroke-linejoin="round"/>
<path d="M23.1768 21.875C25.1076 21.8736 27.0103 22.3375 28.7238 23.2273C30.4373 24.1172 31.9111 25.4068 33.0206 26.9871" stroke="black" stroke-width="2.39804" stroke-linecap="round" stroke-linejoin="round"/>
</svg>
